<?xml version="1.0" encoding="utf-8"?>
<!-- Generator: Adobe Illustrator 25.0.0, SVG Export Plug-In . SVG Version: 6.00 Build 0)  -->
<svg version="1.1" id="Слой_1" xmlns="http://www.w3.org/2000/svg" xmlns:xlink="http://www.w3.org/1999/xlink" x="0px" y="0px"
	 viewBox="0 0 23 23" style="enable-background:new 0 0 23 23;" xml:space="preserve">
<style type="text/css">
	.st0{fill:#FFFFFF;}
</style>
<path class="st0" d="M11.7,0.2C5.5,0.2,0.4,5.2,0.4,11.4c0,6.2,5.1,11.2,11.2,11.2s11.2-5.1,11.2-11.2C22.9,5.2,17.9,0.2,11.7,0.2z
	 M11.7,20.4c-5,0-9-4-9-9c0-5,4-9,9-9c5,0,9,4,9,9C20.7,16.4,16.6,20.4,11.7,20.4z M12.2,5.8h-1.7v6.7l5.8,3.6l0.9-1.5l-5.1-3V5.8z"
	/>
</svg>
