<svg width="368" height="156" viewBox="0 0 368 156" fill="none" xmlns="http://www.w3.org/2000/svg">
<rect x="2.29797" y="35.3459" width="362.976" height="118.439" rx="59.2196" stroke="white" stroke-width="4"/>
<path d="M113.802 120.795H130.506V58.3954H116.394L98.5378 66.2674L101.322 79.2274L113.61 73.6594H113.802V120.795ZM173.729 121.851C190.433 121.851 198.209 107.931 198.209 89.4994C198.209 73.5634 191.969 57.3394 173.729 57.3394C156.161 57.3394 149.153 72.7954 149.153 89.6914C149.153 106.107 155.777 121.851 173.633 121.851H173.729ZM173.729 108.891C169.217 108.891 166.337 103.131 166.433 89.5954C166.433 76.1554 169.313 70.3954 173.729 70.3954C178.337 70.3954 180.929 76.4434 180.929 89.5954C180.929 103.035 178.241 108.891 173.825 108.891H173.729ZM228.76 121.851C245.464 121.851 253.24 107.931 253.24 89.4994C253.24 73.5634 247 57.3394 228.76 57.3394C211.192 57.3394 204.184 72.7954 204.184 89.6914C204.184 106.107 210.808 121.851 228.664 121.851H228.76ZM228.76 108.891C224.248 108.891 221.368 103.131 221.464 89.5954C221.464 76.1554 224.344 70.3954 228.76 70.3954C233.368 70.3954 235.96 76.4434 235.96 89.5954C235.96 103.035 233.272 108.891 228.856 108.891H228.76Z" fill="white"/>
<path d="M141.267 140.461H143.337L144.201 135.871C144.525 135.907 144.903 135.961 145.335 135.961C146.775 135.961 148.161 135.583 149.133 134.809C150.015 134.107 150.681 132.955 150.681 131.515C150.681 130.435 150.285 129.643 149.565 129.103C148.791 128.473 147.585 128.239 146.469 128.239C145.371 128.239 144.273 128.347 143.535 128.527L141.267 140.461ZM145.317 130.039C145.551 129.967 145.947 129.931 146.469 129.931C147.657 129.931 148.575 130.399 148.575 131.677C148.575 133.117 147.405 134.251 145.623 134.251C145.173 134.251 144.867 134.215 144.525 134.143L145.317 130.039ZM151.679 128.329L154.217 136.555C154.325 136.879 154.289 137.095 154.145 137.329C153.767 138.049 153.083 138.823 152.183 138.823C151.841 138.823 151.481 138.751 151.247 138.661L150.869 140.389C151.247 140.569 151.769 140.659 152.309 140.659C153.191 140.659 154.091 140.389 154.883 139.651C156.161 138.499 157.241 136.357 158.231 134.449L161.345 128.329H158.951L156.899 132.919C156.521 133.783 156.215 134.521 155.837 135.439H155.765C155.603 134.647 155.423 133.873 155.243 133.171L153.983 128.329H151.679ZM162.503 128.329L160.217 140.425C160.739 140.497 161.819 140.587 162.989 140.587C164.609 140.587 166.301 140.227 167.453 139.309C168.335 138.589 168.947 137.545 168.947 136.141C168.947 133.819 167.237 132.703 165.113 132.703C164.681 132.703 164.105 132.757 163.745 132.829L164.267 130.129H169.001L169.307 128.329H162.503ZM163.421 134.431C163.745 134.377 164.177 134.323 164.501 134.323C165.833 134.323 166.733 135.007 166.733 136.393C166.733 138.067 165.131 138.949 163.655 138.949C163.223 138.949 162.899 138.931 162.593 138.877L163.421 134.431ZM173.761 128.329L172.789 133.549C172.393 135.655 171.799 137.221 170.971 138.049C170.539 138.517 169.981 138.805 169.261 138.877L169.477 140.641C170.701 140.605 171.637 140.173 172.267 139.543C173.473 138.445 174.211 136.537 174.805 133.405L175.435 130.111H178.747L176.785 140.461H178.873L181.195 128.329H173.761ZM189.246 133.297H184.872L185.484 130.111H190.11L190.452 128.329H183.72L181.416 140.461H188.418L188.76 138.679H183.864L184.548 135.061H188.904L189.246 133.297ZM192.667 128.329L190.363 140.461H192.775L196.537 135.385C197.527 133.999 198.481 132.613 199.291 131.227L199.327 131.245C198.931 132.811 198.661 134.143 198.319 135.889L197.455 140.461H199.435L201.739 128.329H199.489L195.493 133.801C194.521 135.151 193.603 136.447 192.721 137.887H192.685C193.099 136.267 193.441 134.647 193.801 132.811L194.647 128.329H192.667ZM195.133 125.503C195.097 126.763 195.781 127.573 197.365 127.573C198.913 127.573 199.903 126.781 200.173 125.503H198.643C198.481 126.169 198.139 126.583 197.491 126.583C196.843 126.583 196.609 126.115 196.645 125.503H195.133Z" fill="white"/>
<circle cx="322.519" cy="33.0234" r="32.4728" fill="white"/>
<path d="M320.658 36.9889V32.4889H311.838V32.4169L313.998 30.6169C317.382 27.5929 320.226 24.4609 320.226 20.5369C320.226 16.2889 317.31 13.1929 312.018 13.1929C308.85 13.1929 306.114 14.2729 304.35 15.6049L305.898 19.5289C307.122 18.5929 308.886 17.5849 310.902 17.5849C313.602 17.5849 314.754 19.0969 314.754 21.0049C314.682 23.7409 312.198 26.3689 307.086 30.9409L304.062 33.6769V36.9889H320.658ZM325.759 37.3129C326.371 37.3489 327.307 37.3849 328.243 37.3129C331.879 37.1689 334.939 36.0529 337.171 34.0369C339.727 31.6969 341.275 28.1329 341.275 23.2729C341.275 17.8009 338.431 13.1929 332.419 13.1929C327.271 13.1929 323.599 17.0449 323.599 21.6169C323.599 26.1529 326.947 28.9249 330.907 28.9249C333.031 28.9249 334.543 28.3129 335.587 27.2329L335.695 27.2689C335.263 29.0329 334.255 30.5449 332.743 31.5889C331.483 32.4529 329.791 32.9209 328.135 33.0289C327.055 33.1009 326.443 33.1009 325.759 33.0289V37.3129ZM332.275 17.1889C334.759 17.1889 335.695 19.6369 335.695 22.1209C335.695 22.8049 335.587 23.1649 335.407 23.4889C334.903 24.3169 333.859 25.0369 332.383 25.0369C330.151 25.0369 329.071 23.3089 329.071 21.2929C329.035 18.8449 330.403 17.1889 332.275 17.1889Z" fill="#143B25"/>
<path d="M303.167 42.6185L301.631 50.7065H303.023L304.343 43.8065H307.451L306.131 50.7065H307.535L309.071 42.6185H303.167ZM309.213 50.7065H310.593L311.169 47.6465C311.385 47.6705 311.637 47.7065 311.925 47.7065C312.885 47.7065 313.809 47.4545 314.457 46.9385C315.045 46.4705 315.489 45.7025 315.489 44.7425C315.489 44.0225 315.225 43.4945 314.745 43.1345C314.229 42.7145 313.425 42.5585 312.681 42.5585C311.949 42.5585 311.217 42.6305 310.725 42.7505L309.213 50.7065ZM311.913 43.7585C312.069 43.7105 312.333 43.6865 312.681 43.6865C313.473 43.6865 314.085 43.9985 314.085 44.8505C314.085 45.8105 313.305 46.5665 312.117 46.5665C311.817 46.5665 311.613 46.5425 311.385 46.4945L311.913 43.7585ZM317.183 42.6185L315.647 50.7065H317.255L319.763 47.3225C320.423 46.3985 321.059 45.4745 321.599 44.5505L321.623 44.5625C321.359 45.6065 321.179 46.4945 320.951 47.6585L320.375 50.7065H321.695L323.231 42.6185H321.731L319.067 46.2665C318.419 47.1665 317.807 48.0305 317.219 48.9905H317.195C317.471 47.9105 317.699 46.8305 317.939 45.6065L318.503 42.6185H317.183ZM324.735 47.0225H325.287C326.031 47.0105 326.943 47.3705 326.943 48.2225C326.943 49.1705 326.127 49.6505 325.227 49.6505C324.519 49.6505 323.811 49.3625 323.475 49.1585L323.031 50.2265C323.595 50.5985 324.435 50.8385 325.239 50.8385C326.871 50.8385 328.383 49.9865 328.383 48.2825C328.383 47.3105 327.759 46.6385 326.919 46.4585V46.4345C327.879 46.2065 328.743 45.4745 328.743 44.3705C328.743 43.0505 327.663 42.4865 326.511 42.4865C325.587 42.4865 324.819 42.7745 324.315 43.0985L324.603 44.0945C325.047 43.8545 325.611 43.6385 326.211 43.6385C326.811 43.6385 327.279 43.9745 327.279 44.5985C327.303 45.5585 326.319 45.9545 325.407 45.9545H324.939L324.735 47.0225ZM333.744 42.4865C332.652 42.4865 331.632 42.9065 330.9 43.6145C329.928 44.5505 329.388 46.0625 329.388 47.5025C329.388 49.3145 330.48 50.8385 332.568 50.8385C333.744 50.8385 334.728 50.4185 335.46 49.6985C336.408 48.7625 336.924 47.2745 336.924 45.8345C336.924 43.9865 335.904 42.4865 333.744 42.4865ZM333.576 43.6625C335.064 43.6625 335.436 44.8145 335.436 45.8825C335.436 46.9025 335.04 48.2825 334.344 48.9785C333.924 49.4105 333.36 49.6625 332.772 49.6625C331.416 49.6625 330.864 48.6545 330.864 47.4305C330.864 46.3865 331.272 45.0665 331.98 44.3585C332.412 43.9265 332.952 43.6625 333.576 43.6625ZM337.386 50.6345C337.77 50.7065 338.442 50.7545 339.258 50.7545C340.482 50.7545 341.442 50.5745 342.114 50.0945C342.702 49.6865 343.158 49.0505 343.158 48.1985C343.158 47.2745 342.618 46.6505 341.862 46.4225V46.3865C342.75 46.1465 343.542 45.4505 343.542 44.4305C343.542 43.8185 343.23 43.3385 342.762 43.0505C342.27 42.7025 341.658 42.5585 340.818 42.5585C340.086 42.5585 339.414 42.6305 338.874 42.7505L337.386 50.6345ZM340.074 43.7225C340.218 43.6865 340.494 43.6625 340.818 43.6625C341.586 43.6625 342.102 43.9505 342.102 44.6105C342.102 45.4385 341.346 45.9305 340.302 45.9305H339.654L340.074 43.7225ZM339.438 46.9625H340.098C340.95 46.9625 341.682 47.2865 341.682 48.1505C341.682 49.2305 340.722 49.6505 339.678 49.6505C339.414 49.6505 339.162 49.6385 338.934 49.6145L339.438 46.9625Z" fill="#1A442B"/>
</svg>
