<svg width="368" height="156" viewBox="0 0 368 156" fill="none" xmlns="http://www.w3.org/2000/svg">
<rect x="2.51782" y="35.3459" width="362.976" height="118.439" rx="59.2196" stroke="white" stroke-width="4"/>
<path d="M96.5991 116.968H113.303V54.5683H99.1911L81.3351 62.4403L84.1191 75.4003L96.4071 69.8323H96.5991V116.968ZM156.526 118.024C173.23 118.024 181.006 104.104 181.006 85.6723C181.006 69.7363 174.766 53.5123 156.526 53.5123C138.958 53.5123 131.95 68.9683 131.95 85.8643C131.95 102.28 138.574 118.024 156.43 118.024H156.526ZM156.526 105.064C152.014 105.064 149.134 99.3043 149.23 85.7683C149.23 72.3283 152.11 66.5683 156.526 66.5683C161.134 66.5683 163.726 72.6163 163.726 85.7683C163.726 99.2083 161.038 105.064 156.622 105.064H156.526ZM211.558 118.024C228.262 118.024 236.038 104.104 236.038 85.6723C236.038 69.7363 229.798 53.5123 211.558 53.5123C193.99 53.5123 186.982 68.9683 186.982 85.8643C186.982 102.28 193.606 118.024 211.462 118.024H211.558ZM211.558 105.064C207.046 105.064 204.166 99.3043 204.262 85.7683C204.262 72.3283 207.142 66.5683 211.558 66.5683C216.166 66.5683 218.758 72.6163 218.758 85.7683C218.758 99.2083 216.07 105.064 211.654 105.064H211.558ZM266.589 118.024C283.293 118.024 291.069 104.104 291.069 85.6723C291.069 69.7363 284.829 53.5123 266.589 53.5123C249.021 53.5123 242.013 68.9683 242.013 85.8643C242.013 102.28 248.637 118.024 266.493 118.024H266.589ZM266.589 105.064C262.077 105.064 259.197 99.3043 259.293 85.7683C259.293 72.3283 262.173 66.5683 266.589 66.5683C271.197 66.5683 273.789 72.6163 273.789 85.7683C273.789 99.2083 271.101 105.064 266.685 105.064H266.589Z" fill="white"/>
<path d="M160.765 140.461H162.835L163.699 135.871C164.023 135.907 164.401 135.961 164.833 135.961C166.273 135.961 167.659 135.583 168.631 134.809C169.513 134.107 170.179 132.955 170.179 131.515C170.179 130.435 169.783 129.643 169.063 129.103C168.289 128.473 167.083 128.239 165.967 128.239C164.869 128.239 163.771 128.347 163.033 128.527L160.765 140.461ZM164.815 130.039C165.049 129.967 165.445 129.931 165.967 129.931C167.155 129.931 168.073 130.399 168.073 131.677C168.073 133.117 166.903 134.251 165.121 134.251C164.671 134.251 164.365 134.215 164.023 134.143L164.815 130.039ZM171.177 128.329L173.715 136.555C173.823 136.879 173.787 137.095 173.643 137.329C173.265 138.049 172.581 138.823 171.681 138.823C171.339 138.823 170.979 138.751 170.745 138.661L170.367 140.389C170.745 140.569 171.267 140.659 171.807 140.659C172.689 140.659 173.589 140.389 174.381 139.651C175.659 138.499 176.739 136.357 177.729 134.449L180.843 128.329H178.449L176.397 132.919C176.019 133.783 175.713 134.521 175.335 135.439H175.263C175.101 134.647 174.921 133.873 174.741 133.171L173.481 128.329H171.177ZM182.001 128.329L179.715 140.425C180.237 140.497 181.317 140.587 182.487 140.587C184.107 140.587 185.799 140.227 186.951 139.309C187.833 138.589 188.445 137.545 188.445 136.141C188.445 133.819 186.735 132.703 184.611 132.703C184.179 132.703 183.603 132.757 183.243 132.829L183.765 130.129H188.499L188.805 128.329H182.001ZM182.919 134.431C183.243 134.377 183.675 134.323 183.999 134.323C185.331 134.323 186.231 135.007 186.231 136.393C186.231 138.067 184.629 138.949 183.153 138.949C182.721 138.949 182.397 138.931 182.091 138.877L182.919 134.431ZM193.259 128.329L192.287 133.549C191.891 135.655 191.297 137.221 190.469 138.049C190.037 138.517 189.479 138.805 188.759 138.877L188.975 140.641C190.199 140.605 191.135 140.173 191.765 139.543C192.971 138.445 193.709 136.537 194.303 133.405L194.933 130.111H198.245L196.283 140.461H198.371L200.693 128.329H193.259ZM208.744 133.297H204.37L204.982 130.111H209.608L209.95 128.329H203.218L200.914 140.461H207.916L208.258 138.679H203.362L204.046 135.061H208.402L208.744 133.297ZM212.165 128.329L209.861 140.461H212.273L216.035 135.385C217.025 133.999 217.979 132.613 218.789 131.227L218.825 131.245C218.429 132.811 218.159 134.143 217.817 135.889L216.953 140.461H218.933L221.237 128.329H218.987L214.991 133.801C214.019 135.151 213.101 136.447 212.219 137.887H212.183C212.597 136.267 212.939 134.647 213.299 132.811L214.145 128.329H212.165ZM214.631 125.503C214.595 126.763 215.279 127.573 216.863 127.573C218.411 127.573 219.401 126.781 219.671 125.503H218.141C217.979 126.169 217.637 126.583 216.989 126.583C216.341 126.583 216.107 126.115 216.143 125.503H214.631Z" fill="white"/>
<circle cx="322.739" cy="33.0234" r="32.4728" fill="white"/>
<path d="M320.878 36.9889V32.4889H312.058V32.4169L314.218 30.6169C317.602 27.5929 320.446 24.4609 320.446 20.5369C320.446 16.2889 317.53 13.1929 312.238 13.1929C309.07 13.1929 306.334 14.2729 304.57 15.6049L306.118 19.5289C307.342 18.5929 309.106 17.5849 311.122 17.5849C313.822 17.5849 314.974 19.0969 314.974 21.0049C314.902 23.7409 312.418 26.3689 307.306 30.9409L304.282 33.6769V36.9889H320.878ZM332.819 13.1929C326.771 13.1929 323.891 18.5569 323.891 25.3249C323.927 31.9489 326.591 37.3849 332.639 37.3849C338.615 37.3849 341.531 32.4169 341.531 25.1809C341.531 18.7729 339.083 13.1929 332.819 13.1929ZM332.747 17.3329C334.943 17.3329 336.059 20.0689 336.059 25.2529C336.059 30.5809 334.907 33.2449 332.783 33.2449C330.659 33.2449 329.363 30.6889 329.399 25.3249C329.363 19.8889 330.731 17.3329 332.747 17.3329Z" fill="#143B25"/>
<path d="M303.387 42.6185L301.851 50.7065H303.243L304.563 43.8065H307.671L306.351 50.7065H307.755L309.291 42.6185H303.387ZM309.433 50.7065H310.813L311.389 47.6465C311.605 47.6705 311.857 47.7065 312.145 47.7065C313.105 47.7065 314.029 47.4545 314.677 46.9385C315.265 46.4705 315.709 45.7025 315.709 44.7425C315.709 44.0225 315.445 43.4945 314.965 43.1345C314.449 42.7145 313.645 42.5585 312.901 42.5585C312.169 42.5585 311.437 42.6305 310.945 42.7505L309.433 50.7065ZM312.133 43.7585C312.289 43.7105 312.553 43.6865 312.901 43.6865C313.693 43.6865 314.305 43.9985 314.305 44.8505C314.305 45.8105 313.525 46.5665 312.337 46.5665C312.037 46.5665 311.833 46.5425 311.605 46.4945L312.133 43.7585ZM317.403 42.6185L315.867 50.7065H317.475L319.983 47.3225C320.643 46.3985 321.279 45.4745 321.819 44.5505L321.843 44.5625C321.579 45.6065 321.399 46.4945 321.171 47.6585L320.595 50.7065H321.915L323.451 42.6185H321.951L319.287 46.2665C318.639 47.1665 318.027 48.0305 317.439 48.9905H317.415C317.691 47.9105 317.919 46.8305 318.159 45.6065L318.723 42.6185H317.403ZM324.955 47.0225H325.507C326.251 47.0105 327.163 47.3705 327.163 48.2225C327.163 49.1705 326.347 49.6505 325.447 49.6505C324.739 49.6505 324.031 49.3625 323.695 49.1585L323.251 50.2265C323.815 50.5985 324.655 50.8385 325.459 50.8385C327.091 50.8385 328.603 49.9865 328.603 48.2825C328.603 47.3105 327.979 46.6385 327.139 46.4585V46.4345C328.099 46.2065 328.963 45.4745 328.963 44.3705C328.963 43.0505 327.883 42.4865 326.731 42.4865C325.807 42.4865 325.039 42.7745 324.535 43.0985L324.823 44.0945C325.267 43.8545 325.831 43.6385 326.431 43.6385C327.031 43.6385 327.499 43.9745 327.499 44.5985C327.523 45.5585 326.539 45.9545 325.627 45.9545H325.159L324.955 47.0225ZM333.964 42.4865C332.872 42.4865 331.852 42.9065 331.12 43.6145C330.148 44.5505 329.608 46.0625 329.608 47.5025C329.608 49.3145 330.7 50.8385 332.788 50.8385C333.964 50.8385 334.948 50.4185 335.68 49.6985C336.628 48.7625 337.144 47.2745 337.144 45.8345C337.144 43.9865 336.124 42.4865 333.964 42.4865ZM333.796 43.6625C335.284 43.6625 335.656 44.8145 335.656 45.8825C335.656 46.9025 335.26 48.2825 334.564 48.9785C334.144 49.4105 333.58 49.6625 332.992 49.6625C331.636 49.6625 331.084 48.6545 331.084 47.4305C331.084 46.3865 331.492 45.0665 332.2 44.3585C332.632 43.9265 333.172 43.6625 333.796 43.6625ZM337.606 50.6345C337.99 50.7065 338.662 50.7545 339.478 50.7545C340.702 50.7545 341.662 50.5745 342.334 50.0945C342.922 49.6865 343.378 49.0505 343.378 48.1985C343.378 47.2745 342.838 46.6505 342.082 46.4225V46.3865C342.97 46.1465 343.762 45.4505 343.762 44.4305C343.762 43.8185 343.45 43.3385 342.982 43.0505C342.49 42.7025 341.878 42.5585 341.038 42.5585C340.306 42.5585 339.634 42.6305 339.094 42.7505L337.606 50.6345ZM340.294 43.7225C340.438 43.6865 340.714 43.6625 341.038 43.6625C341.806 43.6625 342.322 43.9505 342.322 44.6105C342.322 45.4385 341.566 45.9305 340.522 45.9305H339.874L340.294 43.7225ZM339.658 46.9625H340.318C341.17 46.9625 341.902 47.2865 341.902 48.1505C341.902 49.2305 340.942 49.6505 339.898 49.6505C339.634 49.6505 339.382 49.6385 339.154 49.6145L339.658 46.9625Z" fill="#1A442B"/>
</svg>
