<svg width="165" height="87" viewBox="0 0 165 87" fill="none" xmlns="http://www.w3.org/2000/svg">
<path d="M16.4204 80.3314C21.2844 83.4034 30.3724 86.2194 41.1244 86.2194C62.2444 86.2194 75.1724 75.4674 75.1724 60.7474C75.1724 49.8674 67.1084 42.3154 57.1244 40.5234V40.2674C67.3644 36.6834 72.3564 29.7714 72.3564 20.9394C72.3564 9.5474 62.5004 0.2034 44.7084 0.2034C33.9564 0.2034 23.9724 3.2754 18.9804 6.4754L22.9484 20.5554C26.4044 18.5074 33.5724 15.5634 40.3564 15.5634C48.5484 15.5634 52.6444 19.2754 52.6444 24.2674C52.6444 31.3074 44.3244 33.7394 37.7964 33.8674H30.2444V47.8194H38.1804C46.7564 47.8194 54.9484 51.5314 54.9484 59.7234C54.9484 65.9954 49.8284 70.8594 39.7164 70.8594C31.7804 70.8594 23.8444 67.5314 20.3884 65.7394L16.4204 80.3314Z" fill="#1F7543"/>
<path d="M0.13406 73.2608V85.3928H2.88806V75.5108H7.19006V85.3928H9.94406V73.2608H0.13406ZM17.6617 73.0628C14.0797 73.0628 11.7577 75.7808 11.7577 79.4168C11.7577 82.8728 13.8637 85.5908 17.4637 85.5908C21.0097 85.5908 23.4217 83.1788 23.4217 79.2008C23.4217 75.8528 21.3877 73.0628 17.6617 73.0628ZM17.5897 75.2408C19.4797 75.2408 20.5237 77.1128 20.5237 79.2908C20.5237 81.6488 19.4617 83.4128 17.6077 83.4128C15.7717 83.4128 14.6557 81.7388 14.6557 79.3628C14.6557 77.0048 15.7357 75.2408 17.5897 75.2408ZM26.016 73.2608V78.5708C26.016 80.4068 25.836 81.9548 25.098 82.7108C24.792 83.0348 24.306 83.2868 23.712 83.3588L24.054 85.5728C25.026 85.5728 25.854 85.3208 26.466 84.9788C28.302 83.8988 28.698 81.5048 28.698 78.3908V75.5108H31.452V85.3928H34.188V73.2608H26.016ZM35.3868 73.2608L39.4728 81.5948C39.5628 81.7928 39.6168 81.9548 39.5088 82.1528C39.2928 82.7108 38.7168 83.2868 37.8708 83.2868C37.4748 83.2868 37.1868 83.2508 36.9708 83.1968L36.7728 85.3928C37.1148 85.5188 37.4928 85.5908 38.1228 85.5908C39.5448 85.5908 40.5528 84.9788 41.3448 83.9888C42.2448 82.8728 43.0008 81.0368 43.7388 79.1468L46.0068 73.2608H43.1268L41.8128 77.4908C41.5068 78.5168 41.3088 79.3268 41.1468 79.8488H41.0928C40.8228 79.1108 40.5708 78.3908 40.2468 77.5268L38.4828 73.2608H35.3868ZM47.0651 73.2608V77.2388C47.0651 79.8488 48.6491 81.0188 50.8451 81.0188C51.8531 81.0188 52.6811 80.8208 53.5631 80.3888H53.6171V85.3928H56.3531V73.2608H53.6171V78.3728C53.0951 78.6428 52.4471 78.8228 51.8351 78.8228C50.5391 78.8228 49.8011 78.1568 49.8011 76.7708V73.2608H47.0651ZM65.022 82.2788L65.958 85.3928H68.91L65.148 73.2608H61.548L57.84 85.3928H60.684L61.548 82.2788H65.022ZM61.944 80.2268L62.664 77.6528C62.862 76.9508 63.042 76.0328 63.222 75.3128H63.258C63.438 76.0328 63.654 76.9328 63.87 77.6528L64.626 80.2268H61.944ZM70.5345 73.2608V85.3928H73.6665L76.1325 81.0188C76.8525 79.7408 77.6265 78.1388 78.1845 76.6988H78.2385C78.0765 78.2828 78.0405 79.9388 78.0405 81.8108V85.3928H80.5605V73.2608H77.7525L75.1425 78.0308C74.4225 79.3268 73.6125 80.9288 72.9825 82.3508H72.9105C73.0185 80.7308 73.0545 78.8048 73.0545 76.8608V73.2608H70.5345ZM72.8745 70.4888C73.0185 72.0008 73.9185 72.7028 75.5025 72.7028C77.1045 72.7028 78.1125 72.0368 78.2205 70.4888H76.3845C76.3125 71.1908 76.0965 71.5868 75.5385 71.5868C74.9625 71.5868 74.7645 71.1908 74.7465 70.4888H72.8745ZM85.3022 85.3928H88.0562V75.5648H91.3682V73.2608H82.0442V75.5648H85.3022V85.3928ZM100.042 78.0308H95.5775V75.5108H100.312V73.2608H92.8235V85.3928H100.564V83.1428H95.5775V80.2628H100.042V78.0308ZM106.077 73.2608V85.3388C106.689 85.4288 107.679 85.5188 109.029 85.5188C110.883 85.5188 112.791 85.1588 113.961 84.1148C114.663 83.4848 115.113 82.5668 115.113 81.3788C115.113 80.0468 114.555 79.0928 113.709 78.4808C112.791 77.7968 111.513 77.4908 110.289 77.4908C109.803 77.4908 109.227 77.5268 108.813 77.5808V75.4928H114.141V73.2608H106.077ZM108.795 79.5968C109.137 79.5428 109.461 79.5248 109.767 79.5248C110.415 79.5248 111.099 79.6868 111.585 80.0648C111.981 80.3708 112.233 80.8208 112.233 81.4328C112.233 82.0268 111.999 82.5128 111.639 82.8368C111.189 83.2508 110.523 83.4668 109.857 83.4668C109.479 83.4668 109.101 83.4488 108.795 83.3948V79.5968ZM123.065 82.2788L124.001 85.3928H126.953L123.191 73.2608H119.591L115.883 85.3928H118.727L119.591 82.2788H123.065ZM119.987 80.2268L120.707 77.6528C120.905 76.9508 121.085 76.0328 121.265 75.3128H121.301C121.481 76.0328 121.697 76.9328 121.913 77.6528L122.669 80.2268H119.987ZM129.868 73.2608V78.5708C129.868 80.4068 129.688 81.9548 128.95 82.7108C128.644 83.0348 128.158 83.2868 127.564 83.3588L127.906 85.5728C128.878 85.5728 129.706 85.3208 130.318 84.9788C132.154 83.8988 132.55 81.5048 132.55 78.3908V75.5108H135.304V85.3928H138.04V73.2608H129.868ZM141.469 73.2608V78.5708C141.469 80.4068 141.289 81.9548 140.551 82.7108C140.245 83.0348 139.759 83.2868 139.165 83.3588L139.507 85.5728C140.479 85.5728 141.307 85.3208 141.919 84.9788C143.755 83.8988 144.151 81.5048 144.151 78.3908V75.5108H146.905V85.3928H149.641V73.2608H141.469ZM152.027 73.2608V85.3388C152.639 85.4288 153.647 85.5188 154.961 85.5188C156.743 85.5188 158.777 85.1588 159.947 83.9708C160.541 83.3408 160.919 82.4948 160.919 81.3608C160.919 78.6248 158.615 77.3828 156.113 77.3828C155.663 77.3828 155.105 77.4368 154.763 77.4908V73.2608H152.027ZM154.745 79.5608C155.015 79.5248 155.339 79.4888 155.717 79.4888C156.761 79.4888 158.039 80.0468 158.039 81.4328C158.039 82.7648 156.887 83.4668 155.681 83.4668C155.303 83.4668 154.979 83.4488 154.745 83.3948V79.5608ZM162.035 73.2608V85.3928H164.771V73.2608H162.035Z" fill="white"/>
<path d="M80.3598 50.7499L83.7188 37.1568L97.0638 32.9179L83.4707 29.5588L79.2318 16.2138L75.8727 29.807L62.5277 34.0458L76.1209 37.4049L80.3598 50.7499Z" fill="white"/>
<path d="M98.516 19.1094L100.551 15.4756L96.9171 17.5106L93.2833 15.4756L95.3183 19.1094L93.2833 22.7432L96.9171 20.7083L100.551 22.7432L98.516 19.1094Z" fill="white"/>
<path d="M54.29 44.22L56.325 40.5862L52.6912 42.6212L49.0574 40.5862L51.0923 44.22L49.0574 47.8538L52.6912 45.8189L56.325 47.8538L54.29 44.22Z" fill="white"/>
<path d="M112.056 38.4677L106.303 41.689L100.551 38.4677L103.772 44.22L100.551 49.9723L106.303 46.751L112.056 49.9723L108.834 44.22L112.056 38.4677Z" fill="white"/>
</svg>
