<svg id="Слой_1" data-name="Слой 1" xmlns="http://www.w3.org/2000/svg" viewBox="0 0 93 85"><defs><style>.cls-1{fill:#31985f;}.cls-2{fill:#fff;fill-rule:evenodd;}</style></defs><path class="cls-1" d="M58.71,84.71v-16H27.35v-.25L35,62.06c12-10.76,22.15-21.89,22.15-35.84C57.18,11.11,46.81.1,28,.1,16.73.1,7,3.94.73,8.68l5.5,14C10.58,19.3,16.86,15.72,24,15.72c9.6,0,13.7,5.38,13.7,12.16C37.46,37.61,28.63,47,10.46,63.21L-.3,72.94V84.71Z"/><path class="cls-2" d="M87,21.23H53.46a5.58,5.58,0,0,0-5.59,5.6V49.21a5.57,5.57,0,0,0,5.59,5.59H87a5.58,5.58,0,0,0,5.6-5.59V26.83A5.58,5.58,0,0,0,87,21.23Zm0,5.6v2.8H53.46v-2.8ZM53.46,49.21V38H87V49.21Z"/></svg>