<?xml version="1.0" encoding="utf-8"?>
<!-- Generator: Adobe Illustrator 27.0.0, SVG Export Plug-In . SVG Version: 6.00 Build 0)  -->
<svg version="1.1" id="Слой_1" xmlns="http://www.w3.org/2000/svg" xmlns:xlink="http://www.w3.org/1999/xlink" x="0px" y="0px"
	 viewBox="0 0 306 88" style="enable-background:new 0 0 306 88;" xml:space="preserve">
<style type="text/css">
	.st0{fill:#31985F;}
	.st1{fill:#FFFFFF;}
	.st2{clip-path:url(#SVGID_00000072255082170629490970000015404176675252700324_);fill:#FFFFFF;}
	.st3{clip-path:url(#SVGID_00000072255082170629490970000015404176675252700324_);}
	.st4{clip-path:url(#SVGID_00000013150969030011636330000014689653173774406039_);fill:#FFFFFF;}
</style>
<path class="st0" d="M137.5,83.5V63.7h10V49.1h-10V0.3h-23.8L82.2,51v12.7H119v19.8H137.5z M100.4,49.1v-0.3l11.1-18.2
	c2.8-5.2,5-10.1,7.7-15.5h0.5c-0.4,5.4-0.6,10.5-0.6,15.5v18.4H100.4z"/>
<path class="st1" d="M0.1,75.5l4.1,8.3c0.1,0.2,0.1,0.4,0,0.6c-0.2,0.6-0.8,1.1-1.6,1.1c-0.4,0-0.7,0-0.9-0.1l-0.2,2.2
	c0.3,0.1,0.7,0.2,1.4,0.2c1.4,0,2.4-0.6,3.2-1.6c0.9-1.1,1.7-3,2.4-4.8l2.3-5.9H7.9l-1.3,4.2c-0.3,1-0.5,1.8-0.7,2.4H5.8
	c-0.3-0.7-0.5-1.5-0.8-2.3l-1.8-4.3H0.1z M11.8,75.5v4c0,2.6,1.6,3.8,3.8,3.8c1,0,1.8-0.2,2.7-0.6h0.1v5h2.7V75.5h-2.7v5.1
	c-0.5,0.3-1.2,0.5-1.8,0.5c-1.3,0-2-0.7-2-2.1v-3.5H11.8z M29.8,84.5l0.9,3.1h3l-3.8-12.1h-3.6l-3.7,12.1h2.8l0.9-3.1H29.8z
	 M26.7,82.4l0.7-2.6c0.2-0.7,0.4-1.6,0.6-2.3h0c0.2,0.7,0.4,1.6,0.6,2.3l0.8,2.6H26.7z M43.3,85.1c-0.5,0.2-1.5,0.4-2.3,0.4
	c-2.4,0-3.9-1.5-3.9-4c0-2.7,1.7-4,3.9-4c1,0,1.7,0.2,2.3,0.5l0.6-2.2c-0.5-0.3-1.6-0.5-3-0.5c-3.7,0-6.6,2.3-6.6,6.4
	c0,3.5,2.2,6.1,6.4,6.1c1.5,0,2.6-0.3,3.1-0.5L43.3,85.1z M48.2,87.6h2.8v-9.8h3.3v-2.3h-9.3v2.3h3.3V87.6z M55.7,87.6
	c0.6,0.1,1.6,0.2,3,0.2c2.4,0,3.9-0.4,4.8-1.1c0.8-0.6,1.3-1.5,1.3-2.6c0-1.6-1-2.6-2.4-3v0c1.4-0.5,2-1.5,2-2.6
	c0-1.1-0.6-1.9-1.5-2.4c-0.9-0.5-1.9-0.7-3.6-0.7c-1.4,0-2.8,0.1-3.5,0.3V87.6z M58.4,77.5c0.2,0,0.6-0.1,1.2-0.1
	c1.2,0,1.9,0.5,1.9,1.4c0,0.9-0.8,1.5-2.2,1.5h-0.9V77.5z M58.4,82.2h0.9c1.4,0,2.5,0.5,2.5,1.7c0,1.3-1.1,1.7-2.3,1.7
	c-0.5,0-0.8,0-1.1,0V82.2z M65,75.5l4.1,8.3c0.1,0.2,0.1,0.4,0,0.6c-0.2,0.6-0.8,1.1-1.6,1.1c-0.4,0-0.7,0-0.9-0.1l-0.2,2.2
	c0.3,0.1,0.7,0.2,1.4,0.2c1.4,0,2.4-0.6,3.2-1.6c0.9-1.1,1.7-3,2.4-4.8l2.3-5.9h-2.9l-1.3,4.2c-0.3,1-0.5,1.8-0.7,2.4h-0.1
	c-0.3-0.7-0.5-1.5-0.8-2.3l-1.8-4.3H65z M76.7,75.5v12.1h3.1l2.5-4.4c0.7-1.3,1.5-2.9,2.1-4.3h0.1c-0.2,1.6-0.2,3.2-0.2,5.1v3.6h2.5
	V75.5h-2.8l-2.6,4.8c-0.7,1.3-1.5,2.9-2.2,4.3h-0.1c0.1-1.6,0.1-3.5,0.1-5.5v-3.6H76.7z M79.1,72.7c0.1,1.5,1,2.2,2.6,2.2
	c1.6,0,2.6-0.7,2.7-2.2h-1.8c-0.1,0.7-0.3,1.1-0.8,1.1c-0.6,0-0.8-0.4-0.8-1.1H79.1z M91.5,87.6h2.8v-9.8h3.3v-2.3h-9.3v2.3h3.3
	V87.6z M106.2,80.3h-4.5v-2.5h4.7v-2.2H99v12.1h7.7v-2.2h-5v-2.9h4.5V80.3z M112.3,87.6c0.6,0.1,1.6,0.2,3,0.2
	c2.4,0,3.9-0.4,4.8-1.1c0.8-0.6,1.3-1.5,1.3-2.6c0-1.6-1-2.6-2.4-3v0c1.4-0.5,2-1.5,2-2.6c0-1.1-0.6-1.9-1.5-2.4
	c-0.9-0.5-1.9-0.7-3.6-0.7c-1.4,0-2.8,0.1-3.5,0.3V87.6z M115,77.5c0.2,0,0.6-0.1,1.2-0.1c1.2,0,1.9,0.5,1.9,1.4
	c0,0.9-0.8,1.5-2.2,1.5H115V77.5z M115,82.2h0.9c1.4,0,2.5,0.5,2.5,1.7c0,1.3-1.1,1.7-2.3,1.7c-0.5,0-0.8,0-1.1,0V82.2z M126.8,87.6
	h2.7v-4.3c0.3,0,0.6,0.1,0.9,0.1c1.6,0,3-0.4,3.9-1.3c0.7-0.7,1.1-1.7,1.1-2.9c0-1.2-0.5-2.2-1.3-2.8c-0.8-0.6-2-1-3.7-1
	c-1.7,0-2.9,0.1-3.7,0.3V87.6z M129.5,77.6c0.2-0.1,0.6-0.1,1.1-0.1c1.4,0,2.1,0.7,2.1,1.8c0,1.2-0.9,2-2.4,2c-0.4,0-0.7,0-0.9-0.1
	V77.6z M142.5,75.3c-3.6,0-5.9,2.7-5.9,6.4c0,3.5,2.1,6.2,5.7,6.2c3.5,0,6-2.4,6-6.4C148.3,78.1,146.2,75.3,142.5,75.3z M142.4,77.5
	c1.9,0,2.9,1.9,2.9,4c0,2.4-1.1,4.1-2.9,4.1c-1.8,0-3-1.7-3-4C139.5,79.2,140.6,77.5,142.4,77.5z M150.1,78.2
	c0.7-0.3,1.7-0.7,2.7-0.7c1.2,0,1.8,0.5,1.8,1.3c0,1-0.9,1.5-2.2,1.5h-1.1v2h1.2c1.1,0,2.5,0.3,2.5,1.6c0,1-0.8,1.6-2.2,1.6
	c-1.1,0-2.4-0.4-2.9-0.7l-0.6,2.1c1,0.6,2.4,0.8,3.6,0.8c2.3,0,5-0.9,5-3.6c0-1.6-1.3-2.7-2.8-2.9v0c1.4-0.3,2.4-1.3,2.4-2.9
	c0-1.8-1.6-3.1-4.2-3.1c-1.7,0-2.9,0.5-3.8,1L150.1,78.2z M159.6,75.5v12.1c0.6,0.1,1.6,0.2,2.9,0.2c1.8,0,3.8-0.4,5-1.5
	c0.6-0.6,1-1.5,1-2.6c0-2.7-2.3-4-4.8-4c-0.4,0-1,0.1-1.3,0.1v-4.2H159.6z M162.4,81.8c0.3,0,0.6-0.1,1-0.1c1,0,2.3,0.6,2.3,1.9
	c0,1.3-1.2,2-2.4,2c-0.4,0-0.7,0-0.9-0.1V81.8z M169.7,75.5v12.1h2.7V75.5H169.7z M175,75.5v12.1h2.8v-9.9h4.6v-2.2H175z
	 M183.8,87.6h2.7v-4.3c0.3,0,0.6,0.1,0.9,0.1c1.6,0,3-0.4,3.9-1.3c0.7-0.7,1.1-1.7,1.1-2.9c0-1.2-0.5-2.2-1.3-2.8
	c-0.8-0.6-2-1-3.7-1c-1.7,0-2.9,0.1-3.7,0.3V87.6z M186.5,77.6c0.2-0.1,0.6-0.1,1.1-0.1c1.4,0,2.1,0.7,2.1,1.8c0,1.2-0.9,2-2.4,2
	c-0.4,0-0.7,0-0.9-0.1V77.6z M194.2,75.5v12.1c0.6,0.1,1.6,0.2,2.9,0.2c1.8,0,3.8-0.4,5-1.5c0.6-0.6,1-1.5,1-2.6c0-2.7-2.3-4-4.8-4
	c-0.4,0-1,0.1-1.4,0.1v-4.2H194.2z M197,81.8c0.3,0,0.6-0.1,1-0.1c1,0,2.3,0.6,2.3,1.9c0,1.3-1.2,2-2.4,2c-0.4,0-0.7,0-0.9-0.1V81.8
	z M204.3,75.5v12.1h2.7V75.5H204.3z M209.6,75.5v12.1h14.1V75.5h-2.7v9.9h-3v-9.9h-2.7v9.9h-3v-9.9H209.6z M233.2,80.3h-4.5v-2.5
	h4.7v-2.2H226v12.1h7.7v-2.2h-5v-2.9h4.5V80.3z M239.3,75.5v12.1h2.8v-9.9h4.3v9.9h2.8V75.5H239.3z M251.4,87.6h2.7v-4.3
	c0.3,0,0.6,0.1,0.9,0.1c1.6,0,3-0.4,3.9-1.3c0.7-0.7,1.1-1.7,1.1-2.9c0-1.2-0.5-2.2-1.3-2.8c-0.8-0.6-2-1-3.7-1
	c-1.7,0-2.9,0.1-3.7,0.3V87.6z M254.2,77.6c0.2-0.1,0.6-0.1,1.1-0.1c1.4,0,2.1,0.7,2.1,1.8c0,1.2-0.9,2-2.4,2c-0.4,0-0.7,0-0.9-0.1
	V77.6z M261.9,75.5v12.1h3.1l2.5-4.4c0.7-1.3,1.5-2.9,2.1-4.3h0.1c-0.2,1.6-0.2,3.2-0.2,5.1v3.6h2.5V75.5h-2.8l-2.6,4.8
	c-0.7,1.3-1.5,2.9-2.2,4.3h-0.1c0.1-1.6,0.1-3.5,0.1-5.5v-3.6H261.9z M274.5,78.2c0.7-0.3,1.7-0.7,2.7-0.7c1.2,0,1.8,0.5,1.8,1.3
	c0,1-0.9,1.5-2.2,1.5h-1.1v2h1.2c1.1,0,2.5,0.3,2.5,1.6c0,1-0.8,1.6-2.2,1.6c-1.1,0-2.4-0.4-2.9-0.7l-0.6,2.1c1,0.6,2.4,0.8,3.6,0.8
	c2.3,0,5-0.9,5-3.6c0-1.6-1.3-2.7-2.8-2.9v0c1.4-0.3,2.4-1.3,2.4-2.9c0-1.8-1.6-3.1-4.2-3.1c-1.7,0-2.9,0.5-3.8,1L274.5,78.2z
	 M289.4,75.3c-3.6,0-5.9,2.7-5.9,6.4c0,3.5,2.1,6.2,5.7,6.2c3.5,0,6-2.4,6-6.4C295.2,78.1,293.1,75.3,289.4,75.3z M289.3,77.5
	c1.9,0,2.9,1.9,2.9,4c0,2.4-1.1,4.1-2.9,4.1c-1.8,0-3-1.7-3-4C286.4,79.2,287.5,77.5,289.3,77.5z M297,87.6c0.6,0.1,1.6,0.2,3,0.2
	c2.4,0,3.9-0.4,4.8-1.1c0.8-0.6,1.3-1.5,1.3-2.6c0-1.6-1-2.6-2.4-3v0c1.4-0.5,2-1.5,2-2.6c0-1.1-0.6-1.9-1.5-2.4
	c-0.9-0.5-1.9-0.7-3.6-0.7c-1.4,0-2.8,0.1-3.5,0.3V87.6z M299.7,77.5c0.2,0,0.6-0.1,1.2-0.1c1.2,0,1.9,0.5,1.9,1.4
	c0,0.9-0.8,1.5-2.2,1.5h-0.9V77.5z M299.7,82.2h0.9c1.4,0,2.5,0.5,2.5,1.7c0,1.3-1.1,1.7-2.3,1.7c-0.5,0-0.8,0-1.1,0V82.2z"/>
<g>
	<g>
		<defs>
			<rect id="SVGID_1_" x="134.4" y="21.7" width="38.3" height="37.1"/>
		</defs>
		<clipPath id="SVGID_00000107568953333659159770000009286614199076705959_">
			<use xlink:href="#SVGID_1_"  style="overflow:visible;"/>
		</clipPath>
		<path style="clip-path:url(#SVGID_00000107568953333659159770000009286614199076705959_);fill:#FFFFFF;" d="M147.8,24.4
			c-1,1.4-2.1,2.1-2,2.8c0.1,0.8,1.1,1.5,1.8,2.2c0.7-0.6,1.9-1.2,1.9-1.8C149.6,26.8,148.7,26,147.8,24.4L147.8,24.4z M159.2,24.4
			c-0.9,1.5-1.9,2.4-1.8,3.2c0,0.7,1.3,1.7,1.9,1.7c0.7,0,1.9-1.2,1.9-1.8C161.2,26.7,160.2,25.9,159.2,24.4L159.2,24.4z
			 M138.1,51.1c-0.4,4.2-0.4,4.2,3.4,4.2c8.1,0,16.2,0,24.2,0c3.6,0,4-0.5,2.8-4.2L138.1,51.1z M137.9,33.4c0,3.7-0.1,7,0.1,10.4
			c0,0.6,1.1,1.6,1.7,1.6c9.2,0.1,18.4,0.1,27.7,0c0.6,0,1.7-1,1.7-1.6c0.2-3,0.1-6,0-9c0-0.5-0.8-1.4-1.3-1.4
			c-2.7-0.1-5.4-0.1-8.7-0.1l3.8,5.7l-2.8,2l-6.5-9c-2.3,3.1-4.4,6-6.6,9l-2.7-2.1c1.3-1.9,2.4-3.5,3.7-5.5H137.9z M142.2,29.5
			c-0.4-3.4,0.2-6,3.4-7.4c3.5-1.5,5.7,0.6,7.8,3.3c2.3-2.7,4.7-5.1,8.6-3.1c2.2,1.2,3,3.2,2.9,7.1c1.2,0,2.3,0,3.5,0
			c2.7,0.1,4.3,1.4,4.3,4.1c0.1,7,0.1,14,0,21c0,2.7-1.5,4.1-4.2,4.1c-10,0-20,0-30,0c-2.5,0-4-1.3-4-3.8c-0.1-7.2,0-14.5,0-21.7
			c0-2.4,1.6-3.5,3.8-3.7C139.6,29.5,140.8,29.5,142.2,29.5z"/>
		<g style="clip-path:url(#SVGID_00000107568953333659159770000009286614199076705959_);">
			<defs>
				<path id="SVGID_00000124865777440622009910000005794623256983870856_" d="M147.8,24.4c-1,1.4-2.1,2.1-2,2.8
					c0.1,0.8,1.1,1.5,1.8,2.2c0.7-0.6,1.9-1.2,1.9-1.8C149.6,26.8,148.7,26,147.8,24.4L147.8,24.4z M159.2,24.4
					c-0.9,1.5-1.9,2.4-1.8,3.2c0,0.7,1.3,1.7,1.9,1.7c0.7,0,1.9-1.2,1.9-1.8C161.2,26.7,160.2,25.9,159.2,24.4L159.2,24.4z
					 M138.1,51.1c-0.4,4.2-0.4,4.2,3.4,4.2c8.1,0,16.2,0,24.2,0c3.6,0,4-0.5,2.8-4.2L138.1,51.1z M137.9,33.4c0,3.7-0.1,7,0.1,10.4
					c0,0.6,1.1,1.6,1.7,1.6c9.2,0.1,18.4,0.1,27.7,0c0.6,0,1.7-1,1.7-1.6c0.2-3,0.1-6,0-9c0-0.5-0.8-1.4-1.3-1.4
					c-2.7-0.1-5.4-0.1-8.7-0.1l3.8,5.7l-2.8,2l-6.5-9c-2.3,3.1-4.4,6-6.6,9l-2.7-2.1c1.3-1.9,2.4-3.5,3.7-5.5H137.9z M142.2,29.5
					c-0.4-3.4,0.2-6,3.4-7.4c3.5-1.5,5.7,0.6,7.8,3.3c2.3-2.7,4.7-5.1,8.6-3.1c2.2,1.2,3,3.2,2.9,7.1c1.2,0,2.3,0,3.5,0
					c2.7,0.1,4.3,1.4,4.3,4.1c0.1,7,0.1,14,0,21c0,2.7-1.5,4.1-4.2,4.1c-10,0-20,0-30,0c-2.5,0-4-1.3-4-3.8c-0.1-7.2,0-14.5,0-21.7
					c0-2.4,1.6-3.5,3.8-3.7C139.6,29.5,140.8,29.5,142.2,29.5z"/>
			</defs>
			<clipPath id="SVGID_00000078723879214737223890000004674851942983359397_">
				<use xlink:href="#SVGID_00000124865777440622009910000005794623256983870856_"  style="overflow:visible;"/>
			</clipPath>
			<path style="clip-path:url(#SVGID_00000078723879214737223890000004674851942983359397_);fill:#FFFFFF;" d="M147.8,25.9
				L147.8,25.9l0-3h0V25.9z M151,27.8c0.1-1-0.4-1.8-0.7-2.3c-0.4-0.6-0.7-1.1-1.1-1.8l-2.6,1.5c0.4,0.8,1,1.5,1.2,1.9
				c0.3,0.5,0.3,0.6,0.3,0.4L151,27.8z M148.6,30.6c0.1-0.1,0.3-0.2,0.5-0.4c0.2-0.1,0.4-0.3,0.7-0.5c0.2-0.2,0.5-0.4,0.7-0.7
				c0.2-0.3,0.5-0.7,0.6-1.3l-3-0.2c0-0.3,0.1-0.4,0.1-0.4c0,0-0.1,0.1-0.3,0.2c-0.2,0.1-0.3,0.2-0.6,0.4c-0.2,0.2-0.5,0.3-0.7,0.5
				L148.6,30.6z M144.3,27.4c0.1,0.9,0.7,1.6,1.1,2c0.2,0.2,0.4,0.4,0.6,0.6c0.2,0.2,0.3,0.3,0.4,0.4l2.3-1.9
				c-0.2-0.2-0.4-0.5-0.6-0.7c-0.2-0.2-0.4-0.4-0.5-0.5c-0.3-0.4-0.3-0.4-0.3-0.3L144.3,27.4z M146.6,23.5c-0.5,0.6-0.9,1.1-1.4,1.6
				c-0.2,0.2-0.4,0.5-0.6,0.9c-0.2,0.3-0.4,0.8-0.3,1.4l3-0.4c0,0.3-0.1,0.5,0,0.4c0,0,0.1-0.2,0.3-0.4c0.3-0.3,0.9-1,1.5-1.7
				L146.6,23.5z M159.2,25.9L159.2,25.9l0-3h0V25.9z M162.7,27.5c0-1-0.6-1.7-0.9-2.2c-0.5-0.6-0.8-1-1.3-1.8l-2.5,1.7
				c0.5,0.8,1.1,1.5,1.4,1.9c0.4,0.5,0.3,0.6,0.3,0.4L162.7,27.5z M159.3,30.8c0.5,0,1-0.2,1.3-0.4c0.3-0.2,0.6-0.4,0.9-0.7
				c0.3-0.3,0.5-0.6,0.7-0.9c0.2-0.3,0.4-0.8,0.4-1.3l-3,0c0-0.1,0-0.2,0-0.2c0,0,0,0,0,0c0,0.1-0.1,0.2-0.2,0.3
				c-0.1,0.1-0.2,0.2-0.3,0.2c0,0-0.1,0-0.1,0c0,0,0.1,0,0.2,0L159.3,30.8z M155.9,27.7c0,0.6,0.3,1,0.5,1.3
				c0.2,0.3,0.5,0.6,0.8,0.8c0.3,0.2,0.6,0.5,0.9,0.6c0.3,0.2,0.8,0.4,1.3,0.3l-0.1-3c0.1,0,0.2,0,0.2,0c0,0,0,0,0,0
				c-0.1,0-0.2-0.1-0.3-0.2c-0.1-0.1-0.2-0.2-0.3-0.3c0,0,0,0,0,0c0,0,0,0.1,0,0.2L155.9,27.7z M157.9,23.6
				c-0.4,0.7-0.8,1.2-1.2,1.8c-0.3,0.5-0.8,1.3-0.8,2.3l3-0.2c0,0.2-0.1,0.1,0.3-0.4c0.3-0.4,0.8-1.1,1.3-1.9L157.9,23.6z
				 M168.6,49.6l-30.5,0l0,3l30.5,0L168.6,49.6z M165.8,56.7c0.9,0,1.7,0,2.4-0.2c0.7-0.1,1.5-0.4,2-1.2c0.5-0.7,0.5-1.6,0.4-2.3
				c-0.1-0.7-0.3-1.5-0.6-2.4l-2.9,0.9c0.3,0.9,0.4,1.5,0.5,1.9c0.1,0.4,0,0.4,0.1,0.2c0.1-0.2,0.2-0.1-0.1,0
				c-0.4,0.1-0.9,0.1-1.8,0.1V56.7z M141.5,56.7C141.5,56.7,141.5,56.7,141.5,56.7C141.6,56.7,141.6,56.7,141.5,56.7
				c0.1,0,0.1,0,0.1,0s0,0,0,0c0,0,0,0,0,0s0,0,0,0s0,0,0,0c0,0,0,0,0,0c0,0,0,0,0,0s0,0,0,0s0,0,0,0c0,0,0,0,0,0c0,0,0,0,0,0
				s0,0,0,0s0,0,0,0s0,0,0,0c0,0,0,0,0,0s0,0,0,0s0,0,0,0c0,0,0,0,0,0c0,0,0,0,0,0s0,0,0,0s0,0,0,0s0,0,0,0c0,0,0,0,0,0c0,0,0,0,0,0
				s0,0,0,0c0,0,0,0,0,0c0,0,0,0,0,0c0,0,0,0,0,0s0,0,0,0s0,0,0,0c0,0,0,0,0,0c0,0,0,0,0,0s0,0,0,0s0,0,0,0c0,0,0,0,0,0c0,0,0,0,0,0
				s0,0,0,0s0,0,0,0c0,0,0,0,0,0c0,0,0,0,0,0s0,0,0,0s0,0,0,0c0,0,0,0,0,0c0,0,0,0,0,0c0,0,0,0,0,0s0,0,0,0c0,0,0,0,0,0c0,0,0,0,0,0
				c0,0,0,0,0,0s0,0,0,0s0,0,0,0c0,0,0,0,0,0c0,0,0,0,0,0s0,0,0,0s0,0,0,0c0,0,0,0,0,0c0,0,0,0,0,0s0,0,0,0s0,0,0,0c0,0,0,0,0,0
				c0,0,0,0,0,0c0,0,0,0,0,0s0,0,0,0s0,0,0,0c0,0,0,0,0,0c0,0,0,0,0,0s0,0,0,0s0,0,0,0c0,0,0,0,0,0c0,0,0,0,0,0c0,0,0,0,0,0s0,0,0,0
				c0,0,0,0,0,0c0,0,0,0,0,0c0,0,0,0,0,0s0,0,0,0s0,0,0,0c0,0,0,0,0,0c0,0,0,0,0,0s0,0,0,0s0,0,0,0s0,0,0,0c0,0,0,0,0,0c0,0,0,0,0,0
				s0,0,0,0s0,0,0,0c0,0,0,0,0,0c0,0,0,0,0,0c0,0,0,0,0,0s0,0,0,0s0,0,0,0c0,0,0,0,0,0c0,0,0,0,0,0s0,0,0,0s0,0,0,0c0,0,0,0,0,0
				c0,0,0,0,0,0c0,0,0,0,0,0s0,0,0,0s0,0,0,0c0,0,0,0,0,0c0,0,0,0,0,0s0,0,0,0s0,0,0,0s0,0,0,0c0,0,0,0,0,0c0,0,0,0,0,0s0,0,0,0
				s0,0,0,0s0,0,0,0c0,0,0,0,0,0c0,0,0,0,0,0s0,0,0,0s0,0,0,0s0,0,0,0c0,0,0,0,0,0c0,0,0,0,0,0s0,0,0,0s0,0,0,0c0,0,0,0,0,0
				c0,0,0,0,0,0c0,0,0,0,0,0s0,0,0,0s0,0,0,0c0,0,0,0,0,0c0,0,0,0,0,0c0,0,0,0,0,0s0,0,0,0s0,0,0,0c0,0,0,0,0,0c0,0,0,0,0,0
				c0,0,0,0,0,0s0,0,0,0s0,0,0,0c0,0,0,0,0,0c0,0,0,0,0,0c0,0,0,0,0,0s0,0,0,0s0,0,0,0c0,0,0,0,0,0c0,0,0,0,0,0c0,0,0,0,0,0s0,0,0,0
				s0,0,0,0s0,0,0,0c0,0,0,0,0,0c0,0,0,0,0,0s0,0,0,0s0,0,0,0s0,0,0,0c0,0,0,0,0,0c0,0,0,0,0,0s0,0,0,0s0,0,0,0s0,0,0,0c0,0,0,0,0,0
				c0,0,0,0,0,0c0,0,0,0,0,0s0,0,0,0s0,0,0,0c0,0,0,0,0,0c0,0,0,0,0,0c0,0,0,0,0,0s0,0,0,0s0,0,0,0c0,0,0,0,0,0c0,0,0,0,0,0
				c0,0,0,0,0,0c0,0,0,0,0,0s0,0,0,0s0,0,0,0c0,0,0,0,0,0c0,0,0,0,0,0c0,0,0,0,0,0s0,0,0,0s0,0,0,0s0,0,0,0c0,0,0,0,0,0c0,0,0,0,0,0
				s0,0,0,0s0,0,0,0s0,0,0,0c0,0,0,0,0,0c0,0,0,0,0,0c0,0,0,0,0,0s0,0,0,0s0,0,0,0c0,0,0,0,0,0c0,0,0,0,0,0c0,0,0,0,0,0c0,0,0,0,0,0
				s0,0,0,0s0,0,0,0s0,0,0,0c0,0,0,0,0,0c0,0,0,0,0,0s0,0,0,0s0,0,0,0s0,0,0,0c0,0,0,0,0,0c0,0,0,0,0,0c0,0,0,0,0,0c0,0,0,0,0,0
				s0,0,0,0s0,0,0,0s0,0,0,0c0,0,0,0,0,0c0,0,0,0,0,0s0,0,0,0s0,0,0,0s0,0,0,0c0,0,0,0,0,0c0,0,0,0,0,0c0,0,0,0,0,0c0,0,0,0,0,0
				s0,0,0,0s0,0,0,0s0,0,0,0c0,0,0,0,0,0c0,0,0,0,0,0s0,0,0,0s0,0,0,0s0,0,0,0c0,0,0,0,0,0c0,0,0,0,0,0c0,0,0,0,0,0c0,0,0,0,0,0
				s0,0,0,0s0,0,0,0s0,0,0,0c0,0,0,0,0,0c0,0,0,0,0,0c0,0,0,0,0,0c0,0,0,0,0,0s0,0,0,0s0,0,0,0c0,0,0,0,0,0c0,0,0,0,0,0c0,0,0,0,0,0
				s0,0,0,0s0,0,0,0s0,0,0,0c0,0,0,0,0,0c0,0,0,0,0,0c0,0,0,0,0,0c0,0,0,0,0,0s0,0,0,0s0,0,0,0s0,0,0,0c0,0,0,0,0,0c0,0,0,0,0,0
				c0,0,0,0,0,0c0,0,0,0,0,0s0,0,0,0s0,0,0,0s0,0,0,0c0,0,0,0,0,0c0,0,0,0,0,0c0,0,0,0,0,0c0,0,0,0,0,0s0,0,0,0s0,0,0,0s0,0,0,0
				c0,0,0,0,0,0c0,0,0,0,0,0c0,0,0,0,0,0c0,0,0,0,0,0s0,0,0,0s0,0,0,0s0,0,0,0c0,0,0,0,0,0c0,0,0,0,0,0c0,0,0,0,0,0c0,0,0,0,0,0
				s0,0,0,0s0,0,0,0s0,0,0,0c0,0,0,0,0,0c0,0,0,0,0,0c0,0,0,0,0,0c0,0,0,0,0,0s0,0,0,0s0,0,0,0s0,0,0,0c0,0,0,0,0,0c0,0,0,0,0,0
				c0,0,0,0,0,0c0,0,0,0,0,0s0,0,0,0s0,0,0,0s0,0,0,0c0,0,0,0,0,0c0,0,0,0,0,0c0,0,0,0,0,0c0,0,0,0,0,0c0,0,0,0,0,0c0,0,0,0,0,0
				s0,0,0,0s0,0,0,0s0,0,0,0c0,0,0,0,0,0c0,0,0,0,0,0c0,0,0,0,0,0c0,0,0,0,0,0s0,0,0,0s0,0,0,0s0,0,0,0c0,0,0,0,0,0c0,0,0,0,0,0
				c0,0,0,0,0,0c0,0,0,0,0,0s0,0,0,0s0,0,0,0s0,0,0,0s0,0,0,0s0,0,0,0c0,0,0,0,0,0c0,0,0,0,0,0c0,0,0,0,0,0c0,0,0,0,0,0s0,0,0,0
				s0,0,0,0s0,0,0,0c0,0,0,0,0,0c0,0,0,0,0,0c0,0,0,0,0,0c0,0,0,0,0,0c0,0,0,0,0,0c0,0,0,0,0,0s0,0,0,0s0,0,0,0s0,0,0,0c0,0,0,0,0,0
				c0,0,0,0,0,0c0,0,0,0,0,0c0,0,0,0,0,0c0,0,0,0,0,0c0,0,0,0,0,0s0,0,0,0s0,0,0,0s0,0,0,0c0,0,0,0,0,0c0,0,0,0,0,0c0,0,0,0,0,0
				c0,0,0,0,0,0c0,0,0,0,0,0c0,0,0,0,0,0s0,0,0,0s0,0,0,0s0,0,0,0c0,0,0,0,0,0c0,0,0,0,0,0c0,0,0,0,0,0c0,0,0,0,0,0c0,0,0,0,0,0
				c0,0,0,0,0,0s0,0,0,0s0,0,0,0s0,0,0,0c0,0,0,0,0,0c0,0,0,0,0,0c0,0,0,0,0,0c0,0,0,0,0,0c0,0,0,0,0,0c0,0,0,0,0,0s0,0,0,0s0,0,0,0
				s0,0,0,0s0,0,0,0s0,0,0,0c0,0,0,0,0,0c0,0,0,0,0,0c0,0,0,0,0,0c0,0,0,0,0,0c0,0,0,0,0,0c0,0,0,0,0,0s0,0,0,0s0,0,0,0s0,0,0,0
				c0,0,0,0,0,0c0,0,0,0,0,0c0,0,0,0,0,0c0,0,0,0,0,0c0,0,0,0,0,0c0,0,0,0,0,0s0,0,0,0c0,0,0,0,0,0s0,0,0,0s0,0,0,0s0,0,0,0
				c0,0,0,0,0,0c0,0,0,0,0,0c0,0,0,0,0,0c0,0,0,0,0,0c0,0,0,0,0,0c0,0,0,0,0,0c0,0,0,0,0,0c0,0,0,0,0,0s0,0,0,0s0,0,0,0s0,0,0,0
				c0,0,0,0,0,0s0,0,0,0c0,0,0,0,0,0c0,0,0,0,0,0c0,0,0,0,0,0c0,0,0,0,0,0c0,0,0,0,0,0c0,0,0,0,0,0s0,0,0,0s0,0,0,0s0,0,0,0s0,0,0,0
				s0,0,0,0c0,0,0,0,0,0c0,0,0,0,0,0c0,0,0,0,0,0c0,0,0,0,0,0c0,0,0,0,0,0c0,0,0,0,0,0c0,0,0,0,0,0c0,0,0,0,0,0s0,0,0,0s0,0,0,0
				s0,0,0,0s0,0,0,0s0,0,0,0c0,0,0,0,0,0c0,0,0,0,0,0c0,0,0,0,0,0c0,0,0,0,0,0c0,0,0,0,0,0c0,0,0,0,0,0c0,0,0,0,0,0c0,0,0,0,0,0
				s0,0,0,0s0,0,0,0s0,0,0,0s0,0,0,0s0,0,0,0c0,0,0,0,0,0c0,0,0,0,0,0c0,0,0,0,0,0c0,0,0,0,0,0c0,0,0,0,0,0c0,0,0,0,0,0c0,0,0,0,0,0
				c0,0,0,0,0,0c0,0,0,0,0,0c0,0,0,0,0,0s0,0,0,0s0,0,0,0s0,0,0,0s0,0,0,0s0,0,0,0c0,0,0,0,0,0c0,0,0,0,0,0c0,0,0,0,0,0c0,0,0,0,0,0
				c0,0,0,0,0,0c0,0,0,0,0,0c0,0,0,0,0,0c0,0,0,0,0,0c0,0,0,0,0,0c0,0,0,0,0,0s0,0,0,0c0,0,0,0,0,0s0,0,0,0s0,0,0,0s0,0,0,0s0,0,0,0
				s0,0,0,0c0,0,0,0,0,0c0,0,0,0,0,0c0,0,0,0,0,0c0,0,0,0,0,0c0,0,0,0,0,0c0,0,0,0,0,0c0,0,0,0,0,0c0,0,0,0,0,0c0,0,0,0,0,0
				c0,0,0,0,0,0c0,0,0,0,0,0c0,0,0,0,0,0s0,0,0,0s0,0,0,0s0,0,0,0s0,0,0,0s0,0,0,0s0,0,0,0s0,0,0,0c0,0,0,0,0,0c0,0,0,0,0,0
				c0,0,0,0,0,0c0,0,0,0,0,0c0,0,0,0,0,0c0,0,0,0,0,0c0,0,0,0,0,0c0,0,0,0,0,0c0,0,0,0,0,0c0,0,0,0,0,0c0,0,0,0,0,0c0,0,0,0,0,0
				c0,0,0,0,0,0c0,0,0,0,0,0s0,0,0,0c0,0,0,0,0,0s0,0,0,0s0,0,0,0s0,0,0,0v-3c0,0,0,0,0,0s0,0,0,0s0,0,0,0s0,0,0,0c0,0,0,0,0,0
				s0,0,0,0c0,0,0,0,0,0c0,0,0,0,0,0c0,0,0,0,0,0c0,0,0,0,0,0c0,0,0,0,0,0c0,0,0,0,0,0c0,0,0,0,0,0c0,0,0,0,0,0c0,0,0,0,0,0
				c0,0,0,0,0,0c0,0,0,0,0,0c0,0,0,0,0,0c0,0,0,0,0,0c0,0,0,0,0,0s0,0,0,0s0,0,0,0s0,0,0,0s0,0,0,0s0,0,0,0s0,0,0,0s0,0,0,0
				c0,0,0,0,0,0c0,0,0,0,0,0c0,0,0,0,0,0c0,0,0,0,0,0c0,0,0,0,0,0c0,0,0,0,0,0c0,0,0,0,0,0c0,0,0,0,0,0c0,0,0,0,0,0c0,0,0,0,0,0
				c0,0,0,0,0,0c0,0,0,0,0,0s0,0,0,0s0,0,0,0s0,0,0,0s0,0,0,0s0,0,0,0c0,0,0,0,0,0s0,0,0,0c0,0,0,0,0,0c0,0,0,0,0,0c0,0,0,0,0,0
				c0,0,0,0,0,0c0,0,0,0,0,0c0,0,0,0,0,0c0,0,0,0,0,0c0,0,0,0,0,0c0,0,0,0,0,0c0,0,0,0,0,0s0,0,0,0s0,0,0,0s0,0,0,0s0,0,0,0s0,0,0,0
				c0,0,0,0,0,0c0,0,0,0,0,0c0,0,0,0,0,0c0,0,0,0,0,0c0,0,0,0,0,0c0,0,0,0,0,0c0,0,0,0,0,0c0,0,0,0,0,0c0,0,0,0,0,0c0,0,0,0,0,0
				s0,0,0,0s0,0,0,0s0,0,0,0s0,0,0,0s0,0,0,0c0,0,0,0,0,0c0,0,0,0,0,0c0,0,0,0,0,0c0,0,0,0,0,0c0,0,0,0,0,0c0,0,0,0,0,0c0,0,0,0,0,0
				c0,0,0,0,0,0s0,0,0,0s0,0,0,0s0,0,0,0s0,0,0,0s0,0,0,0c0,0,0,0,0,0c0,0,0,0,0,0c0,0,0,0,0,0c0,0,0,0,0,0c0,0,0,0,0,0c0,0,0,0,0,0
				c0,0,0,0,0,0c0,0,0,0,0,0s0,0,0,0s0,0,0,0s0,0,0,0s0,0,0,0s0,0,0,0c0,0,0,0,0,0c0,0,0,0,0,0c0,0,0,0,0,0c0,0,0,0,0,0c0,0,0,0,0,0
				c0,0,0,0,0,0s0,0,0,0c0,0,0,0,0,0s0,0,0,0s0,0,0,0s0,0,0,0c0,0,0,0,0,0c0,0,0,0,0,0c0,0,0,0,0,0c0,0,0,0,0,0c0,0,0,0,0,0
				c0,0,0,0,0,0c0,0,0,0,0,0c0,0,0,0,0,0s0,0,0,0s0,0,0,0s0,0,0,0c0,0,0,0,0,0s0,0,0,0c0,0,0,0,0,0c0,0,0,0,0,0c0,0,0,0,0,0
				c0,0,0,0,0,0c0,0,0,0,0,0c0,0,0,0,0,0s0,0,0,0s0,0,0,0s0,0,0,0c0,0,0,0,0,0c0,0,0,0,0,0c0,0,0,0,0,0c0,0,0,0,0,0c0,0,0,0,0,0
				c0,0,0,0,0,0s0,0,0,0s0,0,0,0s0,0,0,0s0,0,0,0s0,0,0,0c0,0,0,0,0,0c0,0,0,0,0,0c0,0,0,0,0,0c0,0,0,0,0,0c0,0,0,0,0,0c0,0,0,0,0,0
				s0,0,0,0s0,0,0,0s0,0,0,0c0,0,0,0,0,0c0,0,0,0,0,0c0,0,0,0,0,0c0,0,0,0,0,0c0,0,0,0,0,0c0,0,0,0,0,0s0,0,0,0s0,0,0,0s0,0,0,0
				c0,0,0,0,0,0c0,0,0,0,0,0c0,0,0,0,0,0c0,0,0,0,0,0c0,0,0,0,0,0c0,0,0,0,0,0s0,0,0,0s0,0,0,0s0,0,0,0c0,0,0,0,0,0c0,0,0,0,0,0
				c0,0,0,0,0,0c0,0,0,0,0,0c0,0,0,0,0,0c0,0,0,0,0,0s0,0,0,0s0,0,0,0s0,0,0,0c0,0,0,0,0,0c0,0,0,0,0,0c0,0,0,0,0,0c0,0,0,0,0,0
				c0,0,0,0,0,0c0,0,0,0,0,0s0,0,0,0s0,0,0,0s0,0,0,0c0,0,0,0,0,0c0,0,0,0,0,0c0,0,0,0,0,0c0,0,0,0,0,0s0,0,0,0s0,0,0,0s0,0,0,0
				s0,0,0,0s0,0,0,0c0,0,0,0,0,0c0,0,0,0,0,0c0,0,0,0,0,0c0,0,0,0,0,0s0,0,0,0s0,0,0,0s0,0,0,0c0,0,0,0,0,0c0,0,0,0,0,0c0,0,0,0,0,0
				c0,0,0,0,0,0s0,0,0,0s0,0,0,0s0,0,0,0c0,0,0,0,0,0c0,0,0,0,0,0c0,0,0,0,0,0c0,0,0,0,0,0c0,0,0,0,0,0c0,0,0,0,0,0s0,0,0,0s0,0,0,0
				s0,0,0,0c0,0,0,0,0,0c0,0,0,0,0,0c0,0,0,0,0,0c0,0,0,0,0,0s0,0,0,0s0,0,0,0s0,0,0,0c0,0,0,0,0,0c0,0,0,0,0,0c0,0,0,0,0,0
				c0,0,0,0,0,0s0,0,0,0s0,0,0,0s0,0,0,0c0,0,0,0,0,0c0,0,0,0,0,0c0,0,0,0,0,0c0,0,0,0,0,0s0,0,0,0s0,0,0,0s0,0,0,0c0,0,0,0,0,0
				c0,0,0,0,0,0c0,0,0,0,0,0c0,0,0,0,0,0s0,0,0,0s0,0,0,0s0,0,0,0c0,0,0,0,0,0c0,0,0,0,0,0c0,0,0,0,0,0c0,0,0,0,0,0s0,0,0,0s0,0,0,0
				s0,0,0,0c0,0,0,0,0,0c0,0,0,0,0,0c0,0,0,0,0,0c0,0,0,0,0,0s0,0,0,0s0,0,0,0s0,0,0,0c0,0,0,0,0,0c0,0,0,0,0,0c0,0,0,0,0,0
				c0,0,0,0,0,0s0,0,0,0s0,0,0,0s0,0,0,0c0,0,0,0,0,0c0,0,0,0,0,0c0,0,0,0,0,0s0,0,0,0s0,0,0,0c0,0,0,0,0,0c0,0,0,0,0,0c0,0,0,0,0,0
				c0,0,0,0,0,0s0,0,0,0s0,0,0,0s0,0,0,0c0,0,0,0,0,0c0,0,0,0,0,0c0,0,0,0,0,0c0,0,0,0,0,0s0,0,0,0s0,0,0,0s0,0,0,0c0,0,0,0,0,0
				c0,0,0,0,0,0s0,0,0,0s0,0,0,0s0,0,0,0c0,0,0,0,0,0c0,0,0,0,0,0c0,0,0,0,0,0c0,0,0,0,0,0s0,0,0,0s0,0,0,0s0,0,0,0c0,0,0,0,0,0
				c0,0,0,0,0,0s0,0,0,0s0,0,0,0s0,0,0,0c0,0,0,0,0,0c0,0,0,0,0,0c0,0,0,0,0,0c0,0,0,0,0,0s0,0,0,0s0,0,0,0s0,0,0,0c0,0,0,0,0,0
				c0,0,0,0,0,0s0,0,0,0s0,0,0,0s0,0,0,0c0,0,0,0,0,0c0,0,0,0,0,0c0,0,0,0,0,0c0,0,0,0,0,0s0,0,0,0s0,0,0,0c0,0,0,0,0,0c0,0,0,0,0,0
				c0,0,0,0,0,0s0,0,0,0s0,0,0,0s0,0,0,0c0,0,0,0,0,0c0,0,0,0,0,0s0,0,0,0s0,0,0,0s0,0,0,0c0,0,0,0,0,0c0,0,0,0,0,0c0,0,0,0,0,0
				s0,0,0,0s0,0,0,0c0,0,0,0,0,0c0,0,0,0,0,0c0,0,0,0,0,0c0,0,0,0,0,0s0,0,0,0s0,0,0,0c0,0,0,0,0,0c0,0,0,0,0,0c0,0,0,0,0,0s0,0,0,0
				s0,0,0,0c0,0,0,0,0,0c0,0,0,0,0,0c0,0,0,0,0,0s0,0,0,0s0,0,0,0s0,0,0,0c0,0,0,0,0,0c0,0,0,0,0,0s0,0,0,0s0,0,0,0s0,0,0,0
				c0,0,0,0,0,0c0,0,0,0,0,0s0,0,0,0s0,0,0,0s0,0,0,0c0,0,0,0,0,0c0,0,0,0,0,0c0,0,0,0,0,0s0,0,0,0s0,0,0,0c0,0,0,0,0,0c0,0,0,0,0,0
				c0,0,0,0,0,0s0,0,0,0s0,0,0,0c0,0,0,0,0,0c0,0,0,0,0,0c0,0,0,0,0,0s0,0,0,0s0,0,0,0c0,0,0,0,0,0c0,0,0,0,0,0c0,0,0,0,0,0s0,0,0,0
				s0,0,0,0c0,0,0,0,0,0c0,0,0,0,0,0c0,0,0,0,0,0s0,0,0,0s0,0,0,0c0,0,0,0,0,0c0,0,0,0,0,0s0,0,0,0s0,0,0,0s0,0,0,0c0,0,0,0,0,0
				c0,0,0,0,0,0s0,0,0,0s0,0,0,0s0,0,0,0c0,0,0,0,0,0c0,0,0,0,0,0s0,0,0,0s0,0,0,0s0,0,0,0c0,0,0,0,0,0c0,0,0,0,0,0s0,0,0,0s0,0,0,0
				c0,0,0,0,0,0c0,0,0,0,0,0c0,0,0,0,0,0s0,0,0,0s0,0,0,0c0,0,0,0,0,0c0,0,0,0,0,0s0,0,0,0s0,0,0,0c0,0,0,0,0,0c0,0,0,0,0,0
				c0,0,0,0,0,0s0,0,0,0s0,0,0,0c0,0,0,0,0,0c0,0,0,0,0,0s0,0,0,0s0,0,0,0s0,0,0,0c0,0,0,0,0,0c0,0,0,0,0,0s0,0,0,0s0,0,0,0
				c0,0,0,0,0,0c0,0,0,0,0,0c0,0,0,0,0,0s0,0,0,0c0,0,0,0,0,0c0,0,0,0,0,0c0,0,0,0,0,0s0,0,0,0s0,0,0,0c0,0,0,0,0,0c0,0,0,0,0,0
				s0,0,0,0s0,0,0,0c0,0,0,0,0,0c0,0,0,0,0,0c0,0,0,0,0,0s0,0,0,0s0,0,0,0c0,0,0,0,0,0c0,0,0,0,0,0s0,0,0,0s0,0,0,0c0,0,0,0,0,0
				c0,0,0,0,0,0s0,0,0,0s0,0,0,0c0,0,0,0,0,0c0,0,0,0,0,0c0,0,0,0,0,0s0,0,0,0c0,0,0,0,0,0c0,0,0,0,0,0c0,0,0,0,0,0s0,0,0,0s0,0,0,0
				c0,0,0,0,0,0c0,0,0,0,0,0s0,0,0,0s0,0,0,0c0,0,0,0,0,0c0,0,0,0,0,0s0,0,0,0s0,0,0,0c0,0,0,0,0,0c0,0,0,0,0,0s0,0,0,0s0,0,0,0
				c0,0,0,0,0,0c0,0,0,0,0,0c0,0,0,0,0,0s0,0,0,0c0,0,0,0,0,0c0,0,0,0,0,0s0,0,0,0s0,0,0,0s0,0,0,0c0,0,0,0,0,0c0,0,0,0,0,0s0,0,0,0
				s0,0,0,0c0,0,0,0,0,0s0,0,0,0s0,0,0,0s0,0,0,0c0,0,0,0,0,0c0,0,0,0,0,0s0,0,0,0s0,0,0,0c0,0,0,0,0,0c0,0,0,0,0,0s0,0,0,0s0,0,0,0
				c0,0,0,0,0,0s0,0,0,0s0,0,0,0c0,0,0,0,0,0V56.7z M136.6,50.9c-0.1,1-0.2,1.9-0.2,2.6c0,0.6,0.1,1.5,0.6,2.2
				c0.6,0.7,1.4,0.9,2.1,1c0.6,0.1,1.5,0.1,2.4,0.1l0-3c-1,0-1.6,0-2-0.1c-0.4-0.1-0.3-0.1-0.1,0.1c0.1,0.2,0,0.2,0-0.3
				c0-0.5,0.1-1.2,0.2-2.2L136.6,50.9z M147.8,31.9h-9.9v3h9.9V31.9z M145.4,39.7c1.3-1.9,2.4-3.5,3.7-5.5l-2.5-1.7
				c-1.3,2-2.4,3.6-3.7,5.5L145.4,39.7z M147.8,39.8l-2.7-2.1l-1.8,2.4l2.7,2.1L147.8,39.8z M152.2,31.1c-2.3,3.1-4.4,6-6.6,9
				l2.4,1.8c2.2-3,4.3-5.9,6.6-9L152.2,31.1z M161.2,40l-6.5-9l-2.4,1.8l6.5,9L161.2,40z M161.9,37.7l-2.8,2l1.7,2.4l2.8-2
				L161.9,37.7z M157.7,34.1l3.8,5.7l2.5-1.7l-3.8-5.7L157.7,34.1z M167.8,31.8c-2.8-0.1-5.6-0.1-8.8-0.1v3c3.3,0,6-0.1,8.6,0.1
				L167.8,31.8z M170.5,34.6c0-0.5-0.2-0.9-0.4-1.1c-0.2-0.3-0.4-0.5-0.6-0.7c-0.2-0.2-0.4-0.4-0.7-0.6c-0.2-0.1-0.6-0.4-1.1-0.4
				l-0.1,3c-0.1,0-0.1,0-0.2,0c0,0-0.1,0-0.1,0c0,0-0.1,0,0,0c0,0,0,0,0.1,0c0,0,0.1,0.1,0.1,0.1c0,0,0.1,0.1,0.1,0.1
				c0,0,0,0.1,0,0.1c0,0,0,0,0,0c0,0,0,0,0-0.1c0,0,0-0.1,0-0.2L170.5,34.6z M170.5,43.8c0.2-3.1,0.1-6.2,0-9.2l-3,0.1
				c0.1,3,0.2,6,0,8.9L170.5,43.8z M167.3,46.8c0.5,0,0.9-0.2,1.2-0.4c0.3-0.2,0.6-0.4,0.8-0.6c0.2-0.2,0.5-0.5,0.7-0.8
				c0.2-0.3,0.4-0.7,0.4-1.2l-3-0.2c0-0.1,0-0.2,0.1-0.3c0,0,0,0,0,0c0,0.1-0.1,0.1-0.2,0.2c-0.1,0.1-0.2,0.2-0.3,0.2c0,0,0,0,0,0
				c0,0,0.1,0,0.2,0L167.3,46.8z M139.6,46.8c9.2,0.1,18.5,0.1,27.7,0l0-3c-9.2,0.1-18.4,0.1-27.6,0L139.6,46.8z M136.5,43.8
				c0,0.5,0.3,1,0.4,1.2c0.2,0.3,0.4,0.6,0.7,0.8c0.2,0.2,0.5,0.4,0.8,0.6c0.3,0.2,0.7,0.4,1.2,0.4l0-3c0.1,0,0.2,0,0.2,0
				c0,0,0,0,0,0c0,0-0.1,0-0.1-0.1c0,0-0.1-0.1-0.1-0.1c0,0-0.1-0.1-0.1-0.1c0,0-0.1-0.1-0.1-0.1c0,0,0,0,0,0c0,0,0,0.1,0,0.2
				L136.5,43.8z M136.4,33.4c0,3.6-0.1,7,0.1,10.4l3-0.1c-0.2-3.3-0.1-6.6-0.1-10.3H136.4z M138.4,31c1.2-0.1,2.3,0,3.8,0v-3
				c-1.3,0-2.7-0.1-4,0L138.4,31z M135.9,33.2c0-0.9,0.3-1.3,0.6-1.6c0.3-0.3,0.9-0.6,1.9-0.6l-0.2-3c-1.3,0.1-2.6,0.5-3.7,1.4
				c-1,0.9-1.6,2.2-1.6,3.8L135.9,33.2z M135.9,55c-0.1-7.2,0-14.5,0-21.7l-3,0c-0.1,7.2-0.1,14.5,0,21.8L135.9,55z M138.4,57.3
				c-1,0-1.6-0.3-1.9-0.6c-0.3-0.3-0.6-0.8-0.6-1.7l-3,0c0,1.5,0.5,2.9,1.5,3.9c1,1,2.4,1.4,3.9,1.4L138.4,57.3z M168.4,57.3
				c-10,0-20,0-30,0l0,3c10,0,20,0,30,0L168.4,57.3z M171.1,54.6c0,1.1-0.3,1.7-0.7,2c-0.3,0.3-1,0.6-2.1,0.6l0,3
				c1.6,0,3.1-0.4,4.2-1.5c1.1-1.1,1.5-2.5,1.6-4.2L171.1,54.6z M171.1,33.7c0.1,7,0.1,14,0,20.9l3,0c0.1-7,0.1-14,0-21L171.1,33.7z
				 M168.2,31c1.2,0.1,1.8,0.3,2.2,0.7c0.4,0.3,0.6,0.9,0.7,1.9l3,0c0-1.6-0.5-3.1-1.6-4.1c-1.1-1-2.6-1.4-4.1-1.5L168.2,31z
				 M164.8,31c1.2,0,2.3,0,3.4,0l0.1-3c-1.2-0.1-2.5,0-3.5,0V31z M161.2,23.8c0.8,0.4,1.3,1,1.6,1.8c0.4,0.9,0.5,2.1,0.5,3.9l3,0.1
				c0.1-2-0.1-3.8-0.7-5.2c-0.6-1.5-1.6-2.6-3-3.3L161.2,23.8z M154.5,26.5c1.2-1.4,2.2-2.4,3.2-3c0.9-0.5,2-0.6,3.5,0.2l1.4-2.6
				c-2.3-1.2-4.4-1.2-6.2-0.3c-1.7,0.8-3,2.3-4.2,3.7L154.5,26.5z M146.2,23.6c1.4-0.6,2.3-0.4,3.1,0c0.9,0.5,1.8,1.5,2.9,2.8
				l2.4-1.8c-1-1.4-2.3-2.8-3.8-3.7c-1.7-0.9-3.6-1.1-5.7-0.2L146.2,23.6z M143.7,29.3c-0.2-1.6-0.1-2.8,0.2-3.7
				c0.3-0.8,1-1.6,2.2-2.1l-1.2-2.8c-1.9,0.8-3.2,2-3.8,3.7c-0.6,1.6-0.7,3.4-0.4,5.2L143.7,29.3z M147.8,24.4v-1.5h-2.6l1.3,2.2
				L147.8,24.4z M149.5,27.6l-1.5-0.1l0,0L149.5,27.6z M147.6,29.5l-1.1,1l1,1.2l1.1-1L147.6,29.5z M145.8,27.2l1.5-0.2l0,0
				L145.8,27.2z M147.8,24.4l1.2,0.9l1.9-2.4h-3.1V24.4z M159.2,24.4v-1.5h-2.8l1.6,2.3L159.2,24.4z M161.2,27.5l1.5,0l0,0
				L161.2,27.5z M159.3,29.3l0,1.5l0,0L159.3,29.3z M157.4,27.6l1.5-0.1l0,0L157.4,27.6z M159.2,24.4l1.3,0.8l1.4-2.3h-2.7V24.4z
				 M168.6,51.1l1.4-0.4l-0.3-1.1l-1.1,0L168.6,51.1z M141.5,55.2l0,1.5h0V55.2z M138.1,51.1l0-1.5l-1.4,0l-0.1,1.3L138.1,51.1z
				 M147.8,33.4l1.2,0.8l1.6-2.3h-2.8V33.4z M144.1,38.9l-1.2-0.8l-0.8,1.2l1.1,0.9L144.1,38.9z M146.9,41l-0.9,1.2l1.2,0.9l0.9-1.2
				L146.9,41z M153.4,32l1.2-0.9l-1.2-1.7l-1.2,1.7L153.4,32z M160,40.9l-1.2,0.9l0.9,1.2l1.2-0.9L160,40.9z M162.8,38.9l0.9,1.2
				l1.2-0.8l-0.8-1.2L162.8,38.9z M159,33.3v-1.5h-2.8l1.6,2.3L159,33.3z M167.7,33.3l-0.1,1.5l0,0L167.7,33.3z M169,34.7l1.5-0.1
				l0,0L169,34.7z M169,43.8l1.5,0.1l0,0L169,43.8z M167.3,45.3l0,1.5l0,0L167.3,45.3z M139.6,45.3l0-1.5l0,0L139.6,45.3z M138,43.7
				l1.5-0.1l0,0L138,43.7z M137.9,33.4v-1.5h-1.5v1.5H137.9z M138.3,29.6l0.1,1.5l0,0L138.3,29.6z M134.4,33.2l1.5,0v0L134.4,33.2z
				 M134.4,55l-1.5,0v0L134.4,55z M138.4,58.8l0-1.5l0,0L138.4,58.8z M168.4,58.8l0,1.5h0L168.4,58.8z M172.6,54.6l-1.5,0l0,0
				L172.6,54.6z M172.6,33.7l-1.5,0l0,0L172.6,33.7z M168.3,29.5l-0.1,1.5l0,0L168.3,29.5z M164.8,29.5l-1.5-0.1l-0.1,1.6h1.6V29.5z
				 M161.9,22.4l0.7-1.3l0,0L161.9,22.4z M153.4,25.5l-1.2,0.9l1.1,1.5l1.2-1.4L153.4,25.5z M145.6,22.2l0.6,1.4l0,0L145.6,22.2z
				 M142.2,29.5V31h1.7l-0.2-1.7L142.2,29.5z"/>
		</g>
	</g>
</g>
</svg>
