<?xml version="1.0" encoding="utf-8"?>
<!-- Generator: Adobe Illustrator 25.0.0, SVG Export Plug-In . SVG Version: 6.00 Build 0)  -->
<svg version="1.1" id="Слой_1" xmlns="http://www.w3.org/2000/svg" xmlns:xlink="http://www.w3.org/1999/xlink" x="0px" y="0px"
	 viewBox="0 0 91 84" style="enable-background:new 0 0 91 84;" xml:space="preserve">
<style type="text/css">
	.st0{fill:#31985F;}
	.st1{fill:#FFFFFF;}
</style>
<path class="st0" d="M55.5,83.5V63.7h10V49.1h-10V0.3H31.7L0.2,51v12.7H37v19.8H55.5z M18.4,49.1v-0.3l11.1-18.2
	c2.8-5.2,5-10.1,7.7-15.5h0.5C37.3,20.6,37,25.7,37,30.7v18.4H18.4z"/>
<g>
	<path class="st1" d="M60.9,30c-0.2-1.2-0.2-2.3,0.1-3.4c0.5-2.1,1.9-3.3,3.9-4c1.9-0.6,3.6,0,5,1.3c0.6,0.6,1.1,1.2,1.7,1.8
		c0.1,0.1,0.2,0.2,0.2,0.3c0.5-0.6,1-1.1,1.5-1.7c0.8-0.8,1.7-1.5,2.9-1.9c1.8-0.5,3.4,0.1,4.8,1.2c1.1,0.9,1.6,2.2,1.7,3.6
		c0.1,0.9,0.1,1.7,0.1,2.6c0.4,0,0.9,0,1.3,0c0.9,0,1.8,0,2.8,0.1c2.3,0.3,3.5,1.6,3.5,4c0,4.6,0.1,9.1,0.1,13.7c0,2.2,0,4.3,0,6.5
		c0,0.9-0.1,1.7-0.6,2.5c-0.6,1.1-1.6,1.5-2.8,1.6c-0.8,0.1-1.7,0.1-2.5,0.1c-7.2,0-14.4,0-21.6,0c-2.1,0-4.2,0.1-6.3-0.1
		c-2-0.1-3.2-1.4-3.3-3.4c-0.1-3.9-0.1-7.8,0-11.7c0-2.3,0-4.5,0-6.8c0-1,0-1.9,0-2.9c0.1-2,1.2-3.2,3.2-3.5
		c1.2-0.2,2.4-0.1,3.5-0.1C60.4,30,60.7,30,60.9,30z M56.8,33.8c0,0.1,0,0.1,0,0.1c0,3.3-0.1,6.5,0.1,9.8c0,0.8,1,1.7,1.7,1.7
		c1.5,0,3,0.1,4.4,0.1c7.4,0,14.8,0.1,22.2-0.1c0.8,0,1.7-0.9,1.8-1.7c0.2-2.8,0.1-5.6,0-8.5c0-0.8-0.7-1.5-1.5-1.5
		c-2-0.1-4-0.1-6-0.1c-0.7,0-1.4,0-2.2,0c1.3,1.9,2.5,3.7,3.7,5.5c-0.9,0.7-1.8,1.3-2.7,1.9c-2.1-2.9-4.2-5.8-6.3-8.7
		c-2.1,2.9-4.3,5.8-6.4,8.7c-0.9-0.7-1.8-1.3-2.7-2c1.2-1.8,2.4-3.5,3.6-5.3C63.1,33.8,60,33.8,56.8,33.8z M57,51
		c-0.1,1-0.3,1.9-0.1,2.8c0.1,0.7,0.4,1,1.1,1.1c0.5,0.1,1,0.1,1.4,0.1c8.3,0,16.6,0,25,0c0.6,0,1.2,0,1.8-0.2
		c0.8-0.2,1.1-0.7,1.1-1.5c0-0.7-0.2-1.3-0.4-1.9C86.6,51,86.5,51,86.2,51c-9.6,0-19.2,0-28.8,0C57.2,51,57.1,51,57,51z M77.4,25.1
		c-0.5,0.7-1,1.4-1.4,2.1c-0.5,0.8-0.4,1.3,0.2,1.9c0.9,0.9,1.6,0.9,2.6,0c0.7-0.7,0.8-1.2,0.2-2C78.4,26.4,77.9,25.8,77.4,25.1z
		 M66.4,25.1c-0.6,0.7-1.2,1.3-1.7,2c-0.4,0.5-0.3,0.8,0,1.3c0.4,0.6,1,1,1.5,1.6c0.4-0.3,0.8-0.6,1.2-0.9c0.8-0.6,0.9-1,0.4-1.8
		C67.3,26.5,66.9,25.8,66.4,25.1z"/>
</g>
</svg>
