<svg width="158" height="90" viewBox="0 0 158 90" fill="none" xmlns="http://www.w3.org/2000/svg">
<path d="M48.8822 80.6608H64.9361V0.459595H52.2273L28.084 10.2197L30.6751 21.6946L48.6354 14.1555H48.8822V80.6608Z" fill="#289357"/>
<path d="M0.260647 89.4551H2.97865V85.1171C3.23065 85.1531 3.55465 85.1711 3.91465 85.1711C5.53465 85.1711 6.92065 84.7751 7.85665 83.8931C8.57665 83.2091 8.97265 82.2011 8.97265 81.0131C8.97265 79.8251 8.45065 78.8171 7.67665 78.2051C6.86665 77.5571 5.66065 77.2331 3.96865 77.2331C2.29465 77.2331 1.10665 77.3411 0.260647 77.4851V89.4551ZM2.97865 79.4111C3.17665 79.3571 3.55465 79.3031 4.11265 79.3031C5.48065 79.3031 6.25465 79.9691 6.25465 81.0851C6.25465 82.3271 5.35465 83.0651 3.89665 83.0651C3.50065 83.0651 3.21265 83.0471 2.97865 82.9931V79.4111ZM17.9376 82.0931H13.4736V79.5731H18.2076V77.3231H10.7196V89.4551H18.4596V87.2051H13.4736V84.3251H17.9376V82.0931ZM20.3349 77.3231V89.4551H23.0889V79.5731H27.6789V77.3231H20.3349ZM29.1415 77.3231V89.4551H32.2735L34.7395 85.0811C35.4595 83.8031 36.2335 82.2011 36.7915 80.7611H36.8455C36.6835 82.3451 36.6475 84.0011 36.6475 85.8731V89.4551H39.1675V77.3231H36.3595L33.7495 82.0931C33.0295 83.3891 32.2195 84.9911 31.5895 86.4131H31.5175C31.6255 84.7931 31.6615 82.8671 31.6615 80.9231V77.3231H29.1415ZM50.0652 86.9711C49.5252 87.1871 48.6072 87.3671 47.7792 87.3671C45.3312 87.3671 43.8912 85.8371 43.8912 83.4071C43.8912 80.7071 45.5832 79.3931 47.7612 79.3931C48.7332 79.3931 49.5072 79.6091 50.0652 79.8431L50.6232 77.6651C50.1372 77.4131 49.0572 77.1251 47.6352 77.1251C43.9632 77.1251 41.0112 79.4291 41.0112 83.5691C41.0112 87.0251 43.1712 89.6351 47.3652 89.6351C48.8412 89.6351 49.9752 89.3651 50.4792 89.1131L50.0652 86.9711ZM54.9483 89.4551H57.7023V79.6271H61.0143V77.3231H51.6903V79.6271H54.9483V89.4551ZM62.4696 89.4551H65.1876V85.1171C65.4396 85.1531 65.7636 85.1711 66.1236 85.1711C67.7436 85.1711 69.1296 84.7751 70.0656 83.8931C70.7856 83.2091 71.1816 82.2011 71.1816 81.0131C71.1816 79.8251 70.6596 78.8171 69.8856 78.2051C69.0756 77.5571 67.8696 77.2331 66.1776 77.2331C64.5036 77.2331 63.3156 77.3411 62.4696 77.4851V89.4551ZM65.1876 79.4111C65.3856 79.3571 65.7636 79.3031 66.3216 79.3031C67.6896 79.3031 68.4636 79.9691 68.4636 81.0851C68.4636 82.3271 67.5636 83.0651 66.1056 83.0651C65.7096 83.0651 65.4216 83.0471 65.1876 82.9931V79.4111ZM72.9286 77.3231V89.4551H76.0606L78.5266 85.0811C79.2466 83.8031 80.0206 82.2011 80.5786 80.7611H80.6326C80.4706 82.3451 80.4346 84.0011 80.4346 85.8731V89.4551H82.9546V77.3231H80.1466L77.5366 82.0931C76.8166 83.3891 76.0066 84.9911 75.3766 86.4131H75.3046C75.4126 84.7931 75.4486 82.8671 75.4486 80.9231V77.3231H72.9286ZM85.3564 89.4551H88.0744V85.1171C88.3264 85.1531 88.6504 85.1711 89.0104 85.1711C90.6304 85.1711 92.0164 84.7751 92.9524 83.8931C93.6724 83.2091 94.0684 82.2011 94.0684 81.0131C94.0684 79.8251 93.5464 78.8171 92.7724 78.2051C91.9624 77.5571 90.7564 77.2331 89.0644 77.2331C87.3904 77.2331 86.2024 77.3411 85.3564 77.4851V89.4551ZM88.0744 79.4111C88.2724 79.3571 88.6504 79.3031 89.2084 79.3031C90.5764 79.3031 91.3504 79.9691 91.3504 81.0851C91.3504 82.3271 90.4504 83.0651 88.9924 83.0651C88.5964 83.0651 88.3084 83.0471 88.0744 82.9931V79.4111ZM94.5231 77.3231L98.6091 85.6571C98.6991 85.8551 98.7531 86.0171 98.6451 86.2151C98.4291 86.7731 97.8531 87.3491 97.0071 87.3491C96.6111 87.3491 96.3231 87.3131 96.1071 87.2591L95.9091 89.4551C96.2511 89.5811 96.6291 89.6531 97.2591 89.6531C98.6811 89.6531 99.6891 89.0411 100.481 88.0511C101.381 86.9351 102.137 85.0991 102.875 83.2091L105.143 77.3231H102.263L100.949 81.5531C100.643 82.5791 100.445 83.3891 100.283 83.9111H100.229C99.9591 83.1731 99.7071 82.4531 99.3831 81.5891L97.6191 77.3231H94.5231ZM106.239 77.3231V89.4551H109.371L111.837 85.0811C112.557 83.8031 113.331 82.2011 113.889 80.7611H113.943C113.781 82.3451 113.745 84.0011 113.745 85.8731V89.4551H116.265V77.3231H113.457L110.847 82.0931C110.127 83.3891 109.317 84.9911 108.687 86.4131H108.615C108.723 84.7931 108.759 82.8671 108.759 80.9231V77.3231H106.239ZM108.579 74.5511C108.723 76.0631 109.623 76.7651 111.207 76.7651C112.809 76.7651 113.817 76.0991 113.925 74.5511H112.089C112.017 75.2531 111.801 75.6491 111.243 75.6491C110.667 75.6491 110.469 75.2531 110.451 74.5511H108.579ZM121.007 89.4551H123.761V79.6271H127.073V77.3231H117.749V79.6271H121.007V89.4551ZM135.746 82.0931H131.282V79.5731H136.016V77.3231H128.528V89.4551H136.268V87.2051H131.282V84.3251H135.746V82.0931ZM146.639 86.9711C146.099 87.1871 145.181 87.3671 144.353 87.3671C141.905 87.3671 140.465 85.8371 140.465 83.4071C140.465 80.7071 142.157 79.3931 144.335 79.3931C145.307 79.3931 146.081 79.6091 146.639 79.8431L147.197 77.6651C146.711 77.4131 145.631 77.1251 144.209 77.1251C140.537 77.1251 137.585 79.4291 137.585 83.5691C137.585 87.0251 139.745 89.6351 143.939 89.6351C145.415 89.6351 146.549 89.3651 147.053 89.1131L146.639 86.9711ZM148.849 77.3231V89.4011C149.461 89.4911 150.469 89.5811 151.819 89.5811C153.709 89.5811 155.743 89.2211 156.913 88.0331C157.507 87.4031 157.885 86.5391 157.885 85.3871C157.885 82.6871 155.671 81.4451 153.061 81.4451C152.539 81.4451 151.963 81.4991 151.585 81.5351V77.3231H148.849ZM151.567 83.6231C151.909 83.5871 152.233 83.5511 152.629 83.5511C153.943 83.5511 155.005 84.1271 155.005 85.5131C155.005 86.8811 153.925 87.5291 152.593 87.5291C152.197 87.5291 151.873 87.5111 151.567 87.4571V83.6231Z" fill="white"/>
<path d="M67.7087 25.76H103.303V48.0065H67.7087M103.303 52.4558C104.483 52.4558 105.615 51.987 106.449 51.1526C107.284 50.3182 107.752 49.1865 107.752 48.0065V25.76C107.752 24.5799 107.284 23.4482 106.449 22.6138C105.615 21.7794 104.483 21.3107 103.303 21.3107H67.7087C65.2393 21.3107 63.2594 23.2906 63.2594 25.76V48.0065C63.2594 49.1865 63.7281 50.3182 64.5625 51.1526C65.3969 51.987 66.5286 52.4558 67.7087 52.4558H58.8101V56.9051H112.202V52.4558H103.303Z" fill="white"/>
</svg>
