<?xml version="1.0" encoding="utf-8"?>
<!-- Generator: Adobe Illustrator 27.0.0, SVG Export Plug-In . SVG Version: 6.00 Build 0)  -->
<svg version="1.1" id="Слой_1" xmlns="http://www.w3.org/2000/svg" xmlns:xlink="http://www.w3.org/1999/xlink" x="0px" y="0px"
	 viewBox="0 0 180 88" style="enable-background:new 0 0 180 88;" xml:space="preserve">
<style type="text/css">
	.st0{fill:#31985F;}
	.st1{fill:#FFFFFF;}
	
		.st2{clip-path:url(#SVGID_00000034067075633959683370000008616449080076016040_);fill-rule:evenodd;clip-rule:evenodd;fill:#FFFFFF;}
</style>
<path class="st0" d="M87.7,84.8v-16H56.3v-0.3l7.7-6.4c12-10.8,22.1-21.9,22.1-35.8C86.1,11.2,75.8,0.2,57,0.2
	C45.7,0.2,36,4,29.7,8.8l5.5,14c4.4-3.3,10.6-6.9,17.8-6.9c9.6,0,13.7,5.4,13.7,12.2c-0.3,9.7-9.1,19.1-27.3,35.3L28.7,73v11.8H87.7
	z"/>
<path class="st1" d="M0.6,75.3v12.1h3.1l2.5-4.4c0.7-1.3,1.5-2.9,2.1-4.3h0.1c-0.2,1.6-0.2,3.2-0.2,5.1v3.6h2.5V75.3H7.8l-2.6,4.8
	C4.5,81.4,3.7,83,3,84.4H3c0.1-1.6,0.1-3.5,0.1-5.5v-3.6H0.6z M21.5,85c-0.5,0.2-1.5,0.4-2.3,0.4c-2.4,0-3.9-1.5-3.9-4
	c0-2.7,1.7-4,3.9-4c1,0,1.7,0.2,2.3,0.5l0.6-2.2c-0.5-0.3-1.6-0.5-3-0.5c-3.7,0-6.6,2.3-6.6,6.4c0,3.5,2.2,6.1,6.4,6.1
	c1.5,0,2.6-0.3,3.1-0.5L21.5,85z M23.7,75.3v12.1h2.8v-9.9h4.3v9.9h2.8V75.3H23.7z M41.2,75.1c-3.6,0-5.9,2.7-5.9,6.4
	c0,3.5,2.1,6.2,5.7,6.2c3.5,0,6-2.4,6-6.4C47,77.9,45,75.1,41.2,75.1z M41.2,77.3c1.9,0,2.9,1.9,2.9,4.1c0,2.4-1.1,4.1-2.9,4.1
	c-1.8,0-3-1.7-3-4C38.2,79.1,39.3,77.3,41.2,77.3z M49.6,75.3v5.3c0,1.8-0.2,3.4-0.9,4.1c-0.3,0.3-0.8,0.6-1.4,0.6l0.3,2.2
	c1,0,1.8-0.3,2.4-0.6c1.8-1.1,2.2-3.5,2.2-6.6v-2.9H55v9.9h2.7V75.3H49.6z M60.2,75.3v12.1c0.6,0.1,1.6,0.2,3,0.2
	c1.9,0,3.9-0.4,5.1-1.5c0.6-0.6,1-1.5,1-2.6c0-2.7-2.2-3.9-4.8-3.9c-0.5,0-1.1,0.1-1.5,0.1v-4.2H60.2z M62.9,81.6
	c0.3,0,0.7-0.1,1.1-0.1c1.3,0,2.4,0.6,2.4,2c0,1.4-1.1,2-2.4,2c-0.4,0-0.7,0-1-0.1V81.6z M71.1,78.1c0.7-0.3,1.7-0.7,2.7-0.7
	c1.2,0,1.8,0.5,1.8,1.3c0,1-0.9,1.5-2.2,1.5h-1.1v2h1.2c1.1,0,2.5,0.3,2.5,1.6c0,1-0.8,1.6-2.2,1.6c-1.1,0-2.4-0.4-2.9-0.7l-0.6,2.1
	c1,0.6,2.4,0.8,3.6,0.8c2.3,0,5-0.9,5-3.6c0-1.6-1.3-2.7-2.8-2.9v0c1.4-0.3,2.4-1.3,2.4-2.9c0-1.8-1.6-3.1-4.2-3.1
	c-1.7,0-2.9,0.5-3.8,1L71.1,78.1z M79.1,75.3l4.1,8.3c0.1,0.2,0.1,0.4,0,0.6c-0.2,0.6-0.8,1.1-1.6,1.1c-0.4,0-0.7,0-0.9-0.1
	l-0.2,2.2c0.3,0.1,0.7,0.2,1.4,0.2c1.4,0,2.4-0.6,3.2-1.6c0.9-1.1,1.7-3,2.4-4.8l2.3-5.9h-2.9l-1.3,4.2c-0.3,1-0.5,1.8-0.7,2.4h-0.1
	c-0.3-0.7-0.5-1.5-0.8-2.3l-1.8-4.3H79.1z M90.8,75.3v12.1h3.1l2.5-4.4c0.7-1.3,1.5-2.9,2.1-4.3h0.1c-0.2,1.6-0.2,3.2-0.2,5.1v3.6
	h2.5V75.3H98l-2.6,4.8c-0.7,1.3-1.5,2.9-2.2,4.3h-0.1c0.1-1.6,0.1-3.5,0.1-5.5v-3.6H90.8z M93.1,72.6c0.1,1.5,1,2.2,2.6,2.2
	c1.6,0,2.6-0.7,2.7-2.2h-1.8c-0.1,0.7-0.3,1.1-0.8,1.1c-0.6,0-0.8-0.4-0.8-1.1H93.1z M105.6,87.5h2.8v-9.8h3.3v-2.3h-9.3v2.3h3.3
	V87.5z M120.3,80.1h-4.5v-2.5h4.7v-2.2h-7.5v12.1h7.7v-2.2h-5v-2.9h4.5V80.1z M126.3,75.3v12.1h2.7v-5.1h0.5c1.5,0,2,1,2.4,2.4
	c0.3,0.9,0.5,1.8,0.9,2.7h3c-0.6-1.2-1-2.5-1.4-3.8c-0.5-1.5-1.2-2.5-2.8-2.9l4.2-5.4h-3.3l-3.3,5h-0.2v-5H126.3z M143.7,84.3
	l0.9,3.1h3l-3.8-12.1h-3.6l-3.7,12.1h2.8l0.9-3.1H143.7z M140.7,82.3l0.7-2.6c0.2-0.7,0.4-1.6,0.6-2.3h0c0.2,0.7,0.4,1.6,0.6,2.3
	l0.8,2.6H140.7z M149.3,87.5h2.7v-4.3c0.3,0,0.6,0.1,0.9,0.1c1.6,0,3-0.4,3.9-1.3c0.7-0.7,1.1-1.7,1.1-2.9c0-1.2-0.5-2.2-1.3-2.8
	c-0.8-0.6-2-1-3.7-1c-1.7,0-2.9,0.1-3.7,0.3V87.5z M152,77.4c0.2-0.1,0.6-0.1,1.1-0.1c1.4,0,2.1,0.7,2.1,1.8c0,1.2-0.9,2-2.4,2
	c-0.4,0-0.7,0-0.9-0.1V77.4z M162.2,87.5h2.8v-9.8h3.3v-2.3H159v2.3h3.3V87.5z M169.1,75.3l4.1,8.3c0.1,0.2,0.1,0.4,0,0.6
	c-0.2,0.6-0.8,1.1-1.6,1.1c-0.4,0-0.7,0-0.9-0.1l-0.2,2.2c0.3,0.1,0.7,0.2,1.4,0.2c1.4,0,2.4-0.6,3.2-1.6c0.9-1.1,1.7-3,2.4-4.8
	l2.3-5.9h-2.9l-1.3,4.2c-0.3,1-0.5,1.8-0.7,2.4h-0.1c-0.3-0.7-0.5-1.5-0.8-2.3l-1.8-4.3H169.1z"/>
<g>
	<g>
		<defs>
			<rect id="SVGID_1_" x="73.8" y="21.3" width="44.8" height="33.6"/>
		</defs>
		<clipPath id="SVGID_00000156551904675951737180000012816092906810611371_">
			<use xlink:href="#SVGID_1_"  style="overflow:visible;"/>
		</clipPath>
		
			<path style="clip-path:url(#SVGID_00000156551904675951737180000012816092906810611371_);fill-rule:evenodd;clip-rule:evenodd;fill:#FFFFFF;" d="
			M79.4,49.3V38.1H113v11.2H79.4z M113,26.9v2.8H79.4v-2.8H113z M113,21.3H79.4c-3.1,0-5.6,2.5-5.6,5.6v22.4c0,3.1,2.5,5.6,5.6,5.6
			H113c3.1,0,5.6-2.5,5.6-5.6V26.9C118.6,23.8,116.1,21.3,113,21.3z"/>
	</g>
</g>
</svg>
