<svg width="85" height="81" viewBox="0 0 85 81" fill="none" xmlns="http://www.w3.org/2000/svg">
<path d="M20.8822 80.6608H36.9361V0.459595H24.2273L0.0839844 10.2197L2.6751 21.6946L20.6354 14.1555H20.8822V80.6608Z" fill="#289357"/>
<path d="M39.7087 25.76H75.3031V48.0065H39.7087M75.3031 52.4558C76.4831 52.4558 77.6148 51.987 78.4492 51.1526C79.2836 50.3182 79.7524 49.1865 79.7524 48.0065V25.76C79.7524 24.5799 79.2836 23.4482 78.4492 22.6138C77.6148 21.7794 76.4831 21.3107 75.3031 21.3107H39.7087C37.2393 21.3107 35.2594 23.2906 35.2594 25.76V48.0065C35.2594 49.1865 35.7281 50.3182 36.5625 51.1526C37.3969 51.987 38.5286 52.4558 39.7087 52.4558H30.8101V56.9051H84.2017V52.4558H75.3031Z" fill="white"/>
</svg>