<svg width="97" height="87" viewBox="0 0 97 87" fill="none" xmlns="http://www.w3.org/2000/svg">
<path d="M0.420397 80.3314C5.2844 83.4034 14.3724 86.2194 25.1244 86.2194C46.2444 86.2194 59.1724 75.4674 59.1724 60.7474C59.1724 49.8674 51.1084 42.3154 41.1244 40.5234V40.2674C51.3644 36.6834 56.3564 29.7714 56.3564 20.9394C56.3564 9.5474 46.5004 0.2034 28.7084 0.2034C17.9564 0.2034 7.9724 3.2754 2.9804 6.4754L6.9484 20.5554C10.4044 18.5074 17.5724 15.5634 24.3564 15.5634C32.5484 15.5634 36.6444 19.2754 36.6444 24.2674C36.6444 31.3074 28.3244 33.7394 21.7964 33.8674H14.2444V47.8194H22.1804C30.7564 47.8194 38.9484 51.5314 38.9484 59.7234C38.9484 65.9954 33.8284 70.8594 23.7164 70.8594C15.7804 70.8594 7.8444 67.5314 4.3884 65.7394L0.420397 80.3314Z" fill="#1F7543"/>
<path d="M64.3598 50.7499L67.7188 37.1568L81.0638 32.9179L67.4707 29.5588L63.2318 16.2138L59.8727 29.807L46.5277 34.0458L60.1209 37.4049L64.3598 50.7499Z" fill="white"/>
<path d="M82.516 19.1094L84.5509 15.4756L80.9171 17.5106L77.2833 15.4756L79.3183 19.1094L77.2833 22.7432L80.9171 20.7083L84.5509 22.7432L82.516 19.1094Z" fill="white"/>
<path d="M38.29 44.22L40.325 40.5862L36.6912 42.6212L33.0574 40.5862L35.0923 44.22L33.0574 47.8538L36.6912 45.8189L40.325 47.8538L38.29 44.22Z" fill="white"/>
<path d="M96.0556 38.4677L90.3033 41.689L84.551 38.4677L87.7723 44.22L84.551 49.9723L90.3033 46.751L96.0556 49.9723L92.8343 44.22L96.0556 38.4677Z" fill="white"/>
</svg>