<?xml version="1.0" encoding="utf-8"?>
<!-- Generator: Adobe Illustrator 25.0.0, SVG Export Plug-In . SVG Version: 6.00 Build 0)  -->
<svg version="1.1" id="Слой_1" xmlns="http://www.w3.org/2000/svg" xmlns:xlink="http://www.w3.org/1999/xlink" x="0px" y="0px"
	 viewBox="0 0 23 23" style="enable-background:new 0 0 23 23;" xml:space="preserve">
<style type="text/css">
	.st0{fill:none;stroke:#FFFFFF;stroke-miterlimit:10;}
</style>
<path class="st0" d="M13.1,13.7L13.1,13.7c-0.9-0.6-1.7-1.3-2.4-2l0,0l0,0c-0.7-0.7-1.5-1.5-2.1-2.3C8.5,9.3,8.4,9.2,8.4,9.1
	C8.2,9,8.1,8.9,8,8.7C7.9,8.6,7.8,8.4,7.7,8.2C7.6,8,7.6,7.8,7.6,7.5c0-0.2,0.1-0.5,0.3-0.7l0,0L8.5,6c0.3-0.5,0.3-1.1,0-1.6
	L5.9,1.1l0,0l0,0C5.6,0.7,5.1,0.6,4.6,0.5C4,0.5,3.4,0.6,2.9,0.9 M13.1,13.7c0.1,0.1,0.2,0.1,0.3,0.2c0.3,0.3,0.7,0.5,1,0.7
	c0.2,0.1,0.5,0.2,0.7,0.2c0.3,0,0.5-0.1,0.8-0.3l-0.1-0.2l0.1,0.2l0.8-0.6c0.5-0.3,1.2-0.3,1.7,0l3.3,2.4l0,0l0,0
	c0.4,0.3,0.6,0.8,0.7,1.3c0.1,0.6-0.1,1.2-0.3,1.7c-1,1.9-3.5,2.7-5.6,1.8c-3.1-1.3-6-3.1-8.5-5.3l-1.7-1.6 M2.9,0.9
	C0.9,1.9,0,4.2,1,6.2l0,0c1.4,3,3.2,5.7,5.5,8.1"/>
</svg>
