<svg width="368" height="156" viewBox="0 0 368 156" fill="none" xmlns="http://www.w3.org/2000/svg">
<rect x="2.73767" y="35.3459" width="362.976" height="118.439" rx="59.2196" stroke="white" stroke-width="4"/>
<path d="M65.3664 115.346H82.0704V52.9459H67.9584L50.1024 60.8179L52.8864 73.7779L65.1744 68.2099H65.3664V115.346ZM125.294 116.402C141.998 116.402 149.774 102.482 149.774 84.0499C149.774 68.1139 143.534 51.8899 125.294 51.8899C107.726 51.8899 100.718 67.3459 100.718 84.2419C100.718 100.658 107.342 116.402 125.198 116.402H125.294ZM125.294 103.442C120.782 103.442 117.902 97.6819 117.998 84.1459C117.998 70.7059 120.878 64.9459 125.294 64.9459C129.902 64.9459 132.494 70.9939 132.494 84.1459C132.494 97.5859 129.806 103.442 125.39 103.442H125.294Z" fill="white"/>
<path d="M188.23 116.402C204.934 116.402 212.71 102.482 212.71 84.0499C212.71 68.1139 206.47 51.8899 188.23 51.8899C170.662 51.8899 163.654 67.3459 163.654 84.2419C163.654 100.658 170.278 116.402 188.134 116.402H188.23ZM188.23 103.442C183.718 103.442 180.838 97.6819 180.934 84.1459C180.934 70.7059 183.814 64.9459 188.23 64.9459C192.838 64.9459 195.43 70.9939 195.43 84.1459C195.43 97.5859 192.742 103.442 188.326 103.442H188.23ZM243.261 116.402C259.965 116.402 267.741 102.482 267.741 84.0499C267.741 68.1139 261.501 51.8899 243.261 51.8899C225.693 51.8899 218.685 67.3459 218.685 84.2419C218.685 100.658 225.309 116.402 243.165 116.402H243.261ZM243.261 103.442C238.749 103.442 235.869 97.6819 235.965 84.1459C235.965 70.7059 238.845 64.9459 243.261 64.9459C247.869 64.9459 250.461 70.9939 250.461 84.1459C250.461 97.5859 247.773 103.442 243.357 103.442H243.261ZM298.293 116.402C314.997 116.402 322.773 102.482 322.773 84.0499C322.773 68.1139 316.533 51.8899 298.293 51.8899C280.725 51.8899 273.717 67.3459 273.717 84.2419C273.717 100.658 280.341 116.402 298.197 116.402H298.293ZM298.293 103.442C293.781 103.442 290.901 97.6819 290.997 84.1459C290.997 70.7059 293.877 64.9459 298.293 64.9459C302.901 64.9459 305.493 70.9939 305.493 84.1459C305.493 97.5859 302.805 103.442 298.389 103.442H298.293Z" fill="white"/>
<path d="M167.654 140.461H169.724L170.588 135.871C170.912 135.907 171.29 135.961 171.722 135.961C173.162 135.961 174.548 135.583 175.52 134.809C176.402 134.107 177.068 132.955 177.068 131.515C177.068 130.435 176.672 129.643 175.952 129.103C175.178 128.473 173.972 128.239 172.856 128.239C171.758 128.239 170.66 128.347 169.922 128.527L167.654 140.461ZM171.704 130.039C171.938 129.967 172.334 129.931 172.856 129.931C174.044 129.931 174.962 130.399 174.962 131.677C174.962 133.117 173.792 134.251 172.01 134.251C171.56 134.251 171.254 134.215 170.912 134.143L171.704 130.039ZM178.067 128.329L180.605 136.555C180.713 136.879 180.677 137.095 180.533 137.329C180.155 138.049 179.471 138.823 178.571 138.823C178.229 138.823 177.869 138.751 177.635 138.661L177.257 140.389C177.635 140.569 178.157 140.659 178.697 140.659C179.579 140.659 180.479 140.389 181.271 139.651C182.549 138.499 183.629 136.357 184.619 134.449L187.733 128.329H185.339L183.287 132.919C182.909 133.783 182.603 134.521 182.225 135.439H182.153C181.991 134.647 181.811 133.873 181.631 133.171L180.371 128.329H178.067ZM188.89 128.329L186.604 140.425C187.126 140.497 188.206 140.587 189.376 140.587C190.996 140.587 192.688 140.227 193.84 139.309C194.722 138.589 195.334 137.545 195.334 136.141C195.334 133.819 193.624 132.703 191.5 132.703C191.068 132.703 190.492 132.757 190.132 132.829L190.654 130.129H195.388L195.694 128.329H188.89ZM189.808 134.431C190.132 134.377 190.564 134.323 190.888 134.323C192.22 134.323 193.12 135.007 193.12 136.393C193.12 138.067 191.518 138.949 190.042 138.949C189.61 138.949 189.286 138.931 188.98 138.877L189.808 134.431ZM200.149 128.329L199.177 133.549C198.781 135.655 198.187 137.221 197.359 138.049C196.927 138.517 196.369 138.805 195.649 138.877L195.865 140.641C197.089 140.605 198.025 140.173 198.655 139.543C199.861 138.445 200.599 136.537 201.193 133.405L201.823 130.111H205.135L203.173 140.461H205.261L207.583 128.329H200.149ZM215.633 133.297H211.259L211.871 130.111H216.497L216.839 128.329H210.107L207.803 140.461H214.805L215.147 138.679H210.251L210.935 135.061H215.291L215.633 133.297ZM219.055 128.329L216.751 140.461H219.163L222.925 135.385C223.915 133.999 224.869 132.613 225.679 131.227L225.715 131.245C225.319 132.811 225.049 134.143 224.707 135.889L223.843 140.461H225.823L228.127 128.329H225.877L221.881 133.801C220.909 135.151 219.991 136.447 219.109 137.887H219.073C219.487 136.267 219.829 134.647 220.189 132.811L221.035 128.329H219.055ZM221.521 125.503C221.485 126.763 222.169 127.573 223.753 127.573C225.301 127.573 226.291 126.781 226.561 125.503H225.031C224.869 126.169 224.527 126.583 223.879 126.583C223.231 126.583 222.997 126.115 223.033 125.503H221.521Z" fill="white"/>
<circle cx="335.241" cy="33.0234" r="32.4728" fill="white"/>
<path d="M333.752 36.9889H339.044V13.5889H334.508L328.316 16.4689L329.216 20.5729L333.68 18.4489H333.752V36.9889Z" fill="#143B25"/>
<path d="M323.266 42.6185L321.73 50.7065H323.122L324.442 43.8065H327.55L326.23 50.7065H327.634L329.17 42.6185H323.266ZM329.312 50.7065H330.692L331.268 47.6465C331.484 47.6705 331.736 47.7065 332.024 47.7065C332.984 47.7065 333.908 47.4545 334.556 46.9385C335.144 46.4705 335.588 45.7025 335.588 44.7425C335.588 44.0225 335.324 43.4945 334.844 43.1345C334.328 42.7145 333.524 42.5585 332.78 42.5585C332.048 42.5585 331.316 42.6305 330.824 42.7505L329.312 50.7065ZM332.012 43.7585C332.168 43.7105 332.432 43.6865 332.78 43.6865C333.572 43.6865 334.184 43.9985 334.184 44.8505C334.184 45.8105 333.404 46.5665 332.216 46.5665C331.916 46.5665 331.712 46.5425 331.484 46.4945L332.012 43.7585ZM337.282 42.6185L335.746 50.7065H337.354L339.862 47.3225C340.522 46.3985 341.158 45.4745 341.698 44.5505L341.722 44.5625C341.458 45.6065 341.278 46.4945 341.05 47.6585L340.474 50.7065H341.794L343.33 42.6185H341.83L339.166 46.2665C338.518 47.1665 337.906 48.0305 337.318 48.9905H337.294C337.57 47.9105 337.798 46.8305 338.038 45.6065L338.602 42.6185H337.282ZM344.834 47.0225H345.386C346.13 47.0105 347.042 47.3705 347.042 48.2225C347.042 49.1705 346.226 49.6505 345.326 49.6505C344.618 49.6505 343.91 49.3625 343.574 49.1585L343.13 50.2265C343.694 50.5985 344.534 50.8385 345.338 50.8385C346.97 50.8385 348.482 49.9865 348.482 48.2825C348.482 47.3105 347.858 46.6385 347.018 46.4585V46.4345C347.978 46.2065 348.842 45.4745 348.842 44.3705C348.842 43.0505 347.762 42.4865 346.61 42.4865C345.686 42.4865 344.918 42.7745 344.414 43.0985L344.702 44.0945C345.146 43.8545 345.71 43.6385 346.31 43.6385C346.91 43.6385 347.378 43.9745 347.378 44.5985C347.402 45.5585 346.418 45.9545 345.506 45.9545H345.038L344.834 47.0225Z" fill="#1A442B"/>
</svg>
