<svg width="842" height="313" viewBox="0 0 842 313" fill="none" xmlns="http://www.w3.org/2000/svg">
<g id="3">
<g id="25 000">
<g id="Vector" filter="url(#filter0_d_40_2543)">
<path d="M766.865 42.3113C819.796 42.3113 838 89.6415 838 136.132C838 189.623 815.315 230.512 766.305 230.512C714.213 230.512 694.889 184.302 694.889 136.692C694.889 87.401 715.334 42.3113 766.865 42.3113ZM766.865 80.3995C753.702 80.3995 745.3 96.9231 745.3 136.412C745.02 175.9 753.422 192.704 766.865 192.704C779.748 192.704 787.589 175.62 787.589 136.412C787.589 98.0433 780.028 80.3995 766.865 80.3995Z" fill="white"/>
<path d="M606.322 42.3113C659.254 42.3113 677.458 89.6415 677.458 136.132C677.458 189.623 654.773 230.512 605.762 230.512C553.671 230.512 534.347 184.302 534.347 136.692C534.347 87.401 554.791 42.3113 606.322 42.3113ZM606.322 80.3995C593.159 80.3995 584.758 96.9231 584.758 136.412C584.478 175.9 592.879 192.704 606.322 192.704C619.205 192.704 627.047 175.62 627.047 136.412C627.047 98.0433 619.485 80.3995 606.322 80.3995Z" fill="white"/>
<path d="M445.78 42.3113C498.711 42.3113 516.915 89.6415 516.915 136.132C516.915 189.623 494.23 230.512 445.22 230.512C393.128 230.512 373.804 184.302 373.804 136.692C373.804 87.401 394.249 42.3113 445.78 42.3113ZM445.78 80.3995C432.617 80.3995 424.215 96.9231 424.215 136.412C423.935 175.9 432.337 192.704 445.78 192.704C458.663 192.704 466.504 175.62 466.504 136.412C466.504 98.0433 458.943 80.3995 445.78 80.3995Z" fill="white"/>
<path d="M287.69 45.3919V86.5607H216.274L213.754 106.445C217.675 105.885 221.035 105.885 224.396 105.885C243.16 105.885 262.764 110.366 276.207 120.448C289.65 130.53 296.372 145.373 296.372 165.818C296.372 199.145 266.965 230.512 213.754 230.512C190.789 230.512 171.745 225.751 160.822 220.43L169.224 182.902C177.626 186.542 194.71 191.303 210.953 191.303C226.357 191.303 244.56 185.982 244.56 168.618C244.56 152.095 229.997 142.853 193.87 142.853C184.067 142.853 177.346 143.413 169.784 144.253L181.547 45.3919H287.69Z" fill="white"/>
<path d="M134.989 227.431H0V196.905L25.2054 174.78C62.1734 142.573 80.9375 123.809 81.2175 105.045C81.2175 91.882 72.5357 82.64 54.0517 82.64C38.9284 82.64 25.2054 90.2017 15.1233 97.2032L1.4003 61.0754C15.4033 50.9932 38.3683 42.3113 64.4139 42.3113C106.703 42.3113 131.628 65.2763 131.628 101.124C131.628 130.25 110.904 153.775 89.3393 171.139L71.4154 185.422V185.982H134.989V227.431Z" fill="white"/>
</g>
</g>
<path id="&#208;&#160;&#208;&#163;&#208;&#145;&#208;&#155;&#208;&#149;&#208;&#153;" d="M343.199 296L349.247 264.176C351.215 263.696 354.143 263.408 357.071 263.408C360.047 263.408 363.263 264.032 365.327 265.712C367.247 267.152 368.303 269.264 368.303 272.144C368.303 275.984 366.527 279.056 364.175 280.928C361.583 282.992 357.887 284 354.047 284C352.895 284 351.887 283.856 351.023 283.76L348.719 296H343.199ZM353.999 268.208L351.887 279.152C352.799 279.344 353.615 279.44 354.815 279.44C359.567 279.44 362.687 276.416 362.687 272.576C362.687 269.168 360.239 267.92 357.071 267.92C355.679 267.92 354.623 268.016 353.999 268.208ZM370.965 263.648H377.109L380.469 276.56C380.949 278.432 381.429 280.496 381.861 282.608H382.053C383.061 280.16 383.877 278.192 384.885 275.888L390.357 263.648H396.741L388.437 279.968C385.797 285.056 382.917 290.768 379.509 293.84C377.397 295.808 374.997 296.528 372.645 296.528C371.205 296.528 369.813 296.288 368.805 295.808L369.813 291.2C370.437 291.44 371.397 291.632 372.309 291.632C374.709 291.632 376.533 289.568 377.541 287.648C377.925 287.024 378.021 286.448 377.733 285.584L370.965 263.648ZM399.827 263.648H417.971L417.155 268.448H404.531L403.139 275.648C404.099 275.456 405.635 275.312 406.787 275.312C412.451 275.312 417.011 278.288 417.011 284.48C417.011 288.224 415.379 291.008 413.027 292.928C409.955 295.376 405.443 296.336 401.123 296.336C398.003 296.336 395.123 296.096 393.731 295.904L399.827 263.648ZM402.275 279.92L400.067 291.776C400.883 291.92 401.747 291.968 402.899 291.968C406.835 291.968 411.107 289.616 411.107 285.152C411.107 281.456 408.707 279.632 405.155 279.632C404.291 279.632 403.139 279.776 402.275 279.92ZM429.85 263.648H449.674L443.482 296H437.914L443.146 268.4H434.314L432.634 277.184C431.05 285.536 429.082 290.624 425.866 293.552C424.186 295.232 421.69 296.384 418.426 296.48L417.85 291.776C419.77 291.584 421.258 290.816 422.41 289.568C424.618 287.36 426.202 283.184 427.258 277.568L429.85 263.648ZM471.141 276.896L470.229 281.6H458.613L456.789 291.248H469.845L468.933 296H450.261L456.405 263.648H474.357L473.445 268.4H461.109L459.477 276.896H471.141ZM486.842 256.112H490.874C490.778 257.744 491.402 258.992 493.13 258.992C494.858 258.992 495.77 257.888 496.202 256.112H500.282C499.562 259.52 496.922 261.632 492.794 261.632C488.57 261.632 486.746 259.472 486.842 256.112ZM480.266 263.648H485.546L483.29 275.6C482.33 280.496 481.418 284.816 480.314 289.136H480.41C482.762 285.296 485.21 281.84 487.802 278.24L498.458 263.648H504.458L498.314 296H493.034L495.338 283.808C496.25 279.152 496.97 275.6 498.026 271.424L497.93 271.376C495.77 275.072 493.226 278.768 490.586 282.464L480.554 296H474.122L480.266 263.648Z" fill="white"/>
<g id="Group 3616">
<g id="Group 18">
<g id="Ellipse 10" filter="url(#filter1_d_40_2543)">
<circle cx="809.473" cy="32.4728" r="32.4728" fill="#28A879"/>
</g>
<path id="x2" d="M790.407 24.8344H796.527L798.255 27.7504C798.759 28.6504 799.227 29.5504 799.695 30.3784H799.767C800.235 29.4424 800.667 28.5424 801.135 27.6784L802.683 24.8344H808.623L802.827 33.2224L808.695 42.4384H802.503L800.739 39.2704C800.235 38.4064 799.803 37.5064 799.371 36.6064H799.263C798.831 37.5424 798.363 38.4064 797.931 39.2704L796.275 42.4384H790.263L796.239 33.4744L790.407 24.8344ZM826.931 42.4384H810.335V39.1264L813.359 36.3904C818.471 31.8184 820.955 29.1904 821.027 26.4544C821.027 24.5464 819.875 23.0344 817.175 23.0344C815.159 23.0344 813.395 24.0424 812.171 24.9784L810.623 21.0544C812.387 19.7224 815.123 18.6424 818.291 18.6424C823.583 18.6424 826.499 21.7384 826.499 25.9864C826.499 29.9104 823.655 33.0424 820.271 36.0664L818.111 37.8664V37.9384H826.931V42.4384Z" fill="white"/>
</g>
</g>
</g>
<defs>
<filter id="filter0_d_40_2543" x="-13.2" y="29.1113" width="864.4" height="214.601" filterUnits="userSpaceOnUse" color-interpolation-filters="sRGB">
<feFlood flood-opacity="0" result="BackgroundImageFix"/>
<feColorMatrix in="SourceAlpha" type="matrix" values="0 0 0 0 0 0 0 0 0 0 0 0 0 0 0 0 0 0 127 0" result="hardAlpha"/>
<feOffset/>
<feGaussianBlur stdDeviation="6.6"/>
<feComposite in2="hardAlpha" operator="out"/>
<feColorMatrix type="matrix" values="0 0 0 0 1 0 0 0 0 0.929028 0 0 0 0 0.290278 0 0 0 1 0"/>
<feBlend mode="normal" in2="BackgroundImageFix" result="effect1_dropShadow_40_2543"/>
<feBlend mode="normal" in="SourceGraphic" in2="effect1_dropShadow_40_2543" result="shape"/>
</filter>
<filter id="filter1_d_40_2543" x="763.8" y="-13.2" width="91.3458" height="91.3457" filterUnits="userSpaceOnUse" color-interpolation-filters="sRGB">
<feFlood flood-opacity="0" result="BackgroundImageFix"/>
<feColorMatrix in="SourceAlpha" type="matrix" values="0 0 0 0 0 0 0 0 0 0 0 0 0 0 0 0 0 0 127 0" result="hardAlpha"/>
<feOffset/>
<feGaussianBlur stdDeviation="6.6"/>
<feComposite in2="hardAlpha" operator="out"/>
<feColorMatrix type="matrix" values="0 0 0 0 1 0 0 0 0 0.929028 0 0 0 0 0.290278 0 0 0 1 0"/>
<feBlend mode="normal" in2="BackgroundImageFix" result="effect1_dropShadow_40_2543"/>
<feBlend mode="normal" in="SourceGraphic" in2="effect1_dropShadow_40_2543" result="shape"/>
</filter>
</defs>
</svg>
