<svg width="395" height="183" viewBox="0 0 395 183" fill="none" xmlns="http://www.w3.org/2000/svg">
<g filter="url(#filter0_d_40_1905)">
<rect x="16" y="48.6116" width="362.976" height="118.439" rx="59.2196" stroke="white" stroke-width="4" shape-rendering="crispEdges"/>
</g>
<path d="M155.056 134.061H108.784V123.597L117.424 116.013C130.096 104.973 136.528 98.541 136.624 92.109C136.624 87.597 133.648 84.429 127.312 84.429C122.128 84.429 117.424 87.021 113.968 89.421L109.264 77.037C114.064 73.581 121.936 70.605 130.864 70.605C145.36 70.605 153.904 78.477 153.904 90.765C153.904 100.749 146.8 108.813 139.408 114.765L133.264 119.661V119.853H155.056V134.061ZM207.399 71.661V85.773H182.919L182.055 92.589C183.399 92.397 184.551 92.397 185.703 92.397C192.135 92.397 198.855 93.933 203.463 97.389C208.071 100.845 210.375 105.933 210.375 112.941C210.375 124.365 200.295 135.117 182.055 135.117C174.183 135.117 167.655 133.485 163.911 131.661L166.791 118.797C169.671 120.045 175.527 121.677 181.095 121.677C186.375 121.677 192.615 119.853 192.615 113.901C192.615 108.237 187.623 105.069 175.239 105.069C171.879 105.069 169.575 105.261 166.983 105.549L171.015 71.661H207.399ZM242.558 70.605C260.702 70.605 266.942 86.829 266.942 102.765C266.942 121.101 259.166 135.117 242.366 135.117C224.51 135.117 217.886 119.277 217.886 102.957C217.886 86.061 224.894 70.605 242.558 70.605ZM242.558 83.661C238.046 83.661 235.166 89.325 235.166 102.861C235.07 116.397 237.95 122.157 242.558 122.157C246.974 122.157 249.662 116.301 249.662 102.861C249.662 89.709 247.07 83.661 242.558 83.661Z" fill="white"/>
<path d="M154.969 153.727H157.039L157.903 149.137C158.227 149.173 158.605 149.227 159.037 149.227C160.477 149.227 161.863 148.849 162.835 148.075C163.717 147.373 164.383 146.221 164.383 144.781C164.383 143.701 163.987 142.909 163.267 142.369C162.493 141.739 161.287 141.505 160.171 141.505C159.073 141.505 157.975 141.613 157.237 141.793L154.969 153.727ZM159.019 143.305C159.253 143.233 159.649 143.197 160.171 143.197C161.359 143.197 162.277 143.665 162.277 144.943C162.277 146.383 161.107 147.517 159.325 147.517C158.875 147.517 158.569 147.481 158.227 147.409L159.019 143.305ZM165.382 141.595L167.92 149.821C168.028 150.145 167.992 150.361 167.848 150.595C167.47 151.315 166.786 152.089 165.886 152.089C165.544 152.089 165.184 152.017 164.95 151.927L164.572 153.655C164.95 153.835 165.472 153.925 166.012 153.925C166.894 153.925 167.794 153.655 168.586 152.917C169.864 151.765 170.944 149.623 171.934 147.715L175.048 141.595H172.654L170.602 146.185C170.224 147.049 169.918 147.787 169.54 148.705H169.468C169.306 147.913 169.126 147.139 168.946 146.437L167.686 141.595H165.382ZM176.205 141.595L173.919 153.691C174.441 153.763 175.521 153.853 176.691 153.853C178.311 153.853 180.003 153.493 181.155 152.575C182.037 151.855 182.649 150.811 182.649 149.407C182.649 147.085 180.939 145.969 178.815 145.969C178.383 145.969 177.807 146.023 177.447 146.095L177.969 143.395H182.703L183.009 141.595H176.205ZM177.123 147.697C177.447 147.643 177.879 147.589 178.203 147.589C179.535 147.589 180.435 148.273 180.435 149.659C180.435 151.333 178.833 152.215 177.357 152.215C176.925 152.215 176.601 152.197 176.295 152.143L177.123 147.697ZM187.463 141.595L186.491 146.815C186.095 148.921 185.501 150.487 184.673 151.315C184.241 151.783 183.683 152.071 182.963 152.143L183.179 153.907C184.403 153.871 185.339 153.439 185.969 152.809C187.175 151.711 187.913 149.803 188.507 146.671L189.137 143.377H192.449L190.487 153.727H192.575L194.897 141.595H187.463ZM202.948 146.563H198.574L199.186 143.377H203.812L204.154 141.595H197.422L195.118 153.727H202.12L202.462 151.945H197.566L198.25 148.327H202.606L202.948 146.563ZM206.369 141.595L204.065 153.727H206.477L210.239 148.651C211.229 147.265 212.183 145.879 212.993 144.493L213.029 144.511C212.633 146.077 212.363 147.409 212.021 149.155L211.157 153.727H213.137L215.441 141.595H213.191L209.195 147.067C208.223 148.417 207.305 149.713 206.423 151.153H206.387C206.801 149.533 207.143 147.913 207.503 146.077L208.349 141.595H206.369ZM208.835 138.769C208.799 140.029 209.483 140.839 211.067 140.839C212.615 140.839 213.605 140.047 213.875 138.769H212.345C212.183 139.435 211.841 139.849 211.193 139.849C210.545 139.849 210.311 139.381 210.347 138.769H208.835Z" fill="white"/>
<g filter="url(#filter1_d_40_1905)">
<circle cx="336.221" cy="46.289" r="32.4728" fill="#28A879"/>
</g>
<path d="M334.36 50.2545H317.764V46.9425L320.788 44.2065C325.9 39.6345 328.384 37.0065 328.456 34.2705C328.456 32.3625 327.304 30.8505 324.604 30.8505C322.588 30.8505 320.824 31.8585 319.6 32.7945L318.052 28.8705C319.816 27.5385 322.552 26.4585 325.72 26.4585C331.012 26.4585 333.928 29.5545 333.928 33.8025C333.928 37.7265 331.084 40.8585 327.7 43.8825L325.54 45.6825V45.7545H334.36V50.2545ZM353.357 26.8545V31.3545H344.285L343.781 34.9545C344.285 34.8825 344.717 34.8825 345.293 34.8825C347.525 34.8825 349.793 35.3865 351.449 36.5745C353.213 37.7625 354.293 39.7065 354.293 42.4425C354.293 46.7985 350.549 50.6505 344.249 50.6505C341.405 50.6505 339.029 50.0025 337.733 49.3185L338.705 45.2145C339.749 45.7185 341.873 46.3665 343.997 46.3665C346.265 46.3665 348.677 45.2865 348.677 42.8025C348.677 40.3905 346.769 38.9145 342.089 38.9145C340.793 38.9145 339.893 38.9865 338.921 39.1305L340.469 26.8545H353.357Z" fill="white"/>
<path d="M316.869 55.8842L315.333 63.9722H316.725L318.045 57.0722H321.153L319.833 63.9722H321.237L322.773 55.8842H316.869ZM322.915 63.9722H324.295L324.871 60.9122C325.087 60.9362 325.339 60.9722 325.627 60.9722C326.587 60.9722 327.511 60.7202 328.159 60.2042C328.747 59.7362 329.191 58.9682 329.191 58.0082C329.191 57.2882 328.927 56.7602 328.447 56.4002C327.931 55.9802 327.127 55.8242 326.383 55.8242C325.651 55.8242 324.919 55.8962 324.427 56.0162L322.915 63.9722ZM325.615 57.0242C325.771 56.9762 326.035 56.9522 326.383 56.9522C327.175 56.9522 327.787 57.2642 327.787 58.1162C327.787 59.0762 327.007 59.8322 325.819 59.8322C325.519 59.8322 325.315 59.8082 325.087 59.7602L325.615 57.0242ZM330.885 55.8842L329.349 63.9722H330.957L333.465 60.5882C334.125 59.6642 334.761 58.7402 335.301 57.8162L335.325 57.8282C335.061 58.8722 334.881 59.7602 334.653 60.9242L334.077 63.9722H335.397L336.933 55.8842H335.433L332.769 59.5322C332.121 60.4322 331.509 61.2962 330.921 62.2562H330.897C331.173 61.1762 331.401 60.0962 331.641 58.8722L332.205 55.8842H330.885ZM338.437 60.2882H338.989C339.733 60.2762 340.645 60.6362 340.645 61.4882C340.645 62.4362 339.829 62.9162 338.929 62.9162C338.221 62.9162 337.513 62.6282 337.177 62.4242L336.733 63.4922C337.297 63.8642 338.137 64.1042 338.941 64.1042C340.573 64.1042 342.085 63.2522 342.085 61.5482C342.085 60.5762 341.461 59.9042 340.621 59.7242V59.7002C341.581 59.4722 342.445 58.7402 342.445 57.6362C342.445 56.3162 341.365 55.7522 340.213 55.7522C339.289 55.7522 338.521 56.0402 338.017 56.3642L338.305 57.3602C338.749 57.1202 339.313 56.9042 339.913 56.9042C340.513 56.9042 340.981 57.2402 340.981 57.8642C341.005 58.8242 340.021 59.2202 339.109 59.2202H338.641L338.437 60.2882ZM347.446 55.7522C346.354 55.7522 345.334 56.1722 344.602 56.8802C343.63 57.8162 343.09 59.3282 343.09 60.7682C343.09 62.5802 344.182 64.1042 346.27 64.1042C347.446 64.1042 348.43 63.6842 349.162 62.9642C350.11 62.0282 350.626 60.5402 350.626 59.1002C350.626 57.2522 349.606 55.7522 347.446 55.7522ZM347.278 56.9282C348.766 56.9282 349.138 58.0802 349.138 59.1482C349.138 60.1682 348.742 61.5482 348.046 62.2442C347.626 62.6762 347.062 62.9282 346.474 62.9282C345.118 62.9282 344.566 61.9202 344.566 60.6962C344.566 59.6522 344.974 58.3322 345.682 57.6242C346.114 57.1922 346.654 56.9282 347.278 56.9282ZM351.088 63.9002C351.472 63.9722 352.144 64.0202 352.96 64.0202C354.184 64.0202 355.144 63.8402 355.816 63.3602C356.404 62.9522 356.86 62.3162 356.86 61.4642C356.86 60.5402 356.32 59.9162 355.564 59.6882V59.6522C356.452 59.4122 357.244 58.7162 357.244 57.6962C357.244 57.0842 356.932 56.6042 356.464 56.3162C355.972 55.9682 355.36 55.8242 354.52 55.8242C353.788 55.8242 353.116 55.8962 352.576 56.0162L351.088 63.9002ZM353.776 56.9882C353.92 56.9522 354.196 56.9282 354.52 56.9282C355.288 56.9282 355.804 57.2162 355.804 57.8762C355.804 58.7042 355.048 59.1962 354.004 59.1962H353.356L353.776 56.9882ZM353.14 60.2282H353.8C354.652 60.2282 355.384 60.5522 355.384 61.4162C355.384 62.4962 354.424 62.9162 353.38 62.9162C353.116 62.9162 352.864 62.9042 352.636 62.8802L353.14 60.2282Z" fill="white"/>
<defs>
<filter id="filter0_d_40_1905" x="0.8" y="33.4116" width="393.376" height="148.839" filterUnits="userSpaceOnUse" color-interpolation-filters="sRGB">
<feFlood flood-opacity="0" result="BackgroundImageFix"/>
<feColorMatrix in="SourceAlpha" type="matrix" values="0 0 0 0 0 0 0 0 0 0 0 0 0 0 0 0 0 0 127 0" result="hardAlpha"/>
<feOffset/>
<feGaussianBlur stdDeviation="6.6"/>
<feComposite in2="hardAlpha" operator="out"/>
<feColorMatrix type="matrix" values="0 0 0 0 1 0 0 0 0 0.929028 0 0 0 0 0.290278 0 0 0 1 0"/>
<feBlend mode="normal" in2="BackgroundImageFix" result="effect1_dropShadow_40_1905"/>
<feBlend mode="normal" in="SourceGraphic" in2="effect1_dropShadow_40_1905" result="shape"/>
</filter>
<filter id="filter1_d_40_1905" x="290.548" y="0.616162" width="91.3458" height="91.3457" filterUnits="userSpaceOnUse" color-interpolation-filters="sRGB">
<feFlood flood-opacity="0" result="BackgroundImageFix"/>
<feColorMatrix in="SourceAlpha" type="matrix" values="0 0 0 0 0 0 0 0 0 0 0 0 0 0 0 0 0 0 127 0" result="hardAlpha"/>
<feOffset/>
<feGaussianBlur stdDeviation="6.6"/>
<feComposite in2="hardAlpha" operator="out"/>
<feColorMatrix type="matrix" values="0 0 0 0 1 0 0 0 0 0.929028 0 0 0 0 0.290278 0 0 0 1 0"/>
<feBlend mode="normal" in2="BackgroundImageFix" result="effect1_dropShadow_40_1905"/>
<feBlend mode="normal" in="SourceGraphic" in2="effect1_dropShadow_40_1905" result="shape"/>
</filter>
</defs>
</svg>
