<svg width="394" height="183" viewBox="0 0 394 183" fill="none" xmlns="http://www.w3.org/2000/svg">
<g filter="url(#filter0_d_40_1915)">
<rect x="15.2197" y="48.6116" width="362.976" height="118.439" rx="59.2196" stroke="white" stroke-width="4" shape-rendering="crispEdges"/>
</g>
<path d="M136.853 130.234H90.581V119.77L99.221 112.186C111.893 101.146 118.325 94.7139 118.421 88.2819C118.421 83.7699 115.445 80.6019 109.109 80.6019C103.925 80.6019 99.221 83.1939 95.765 85.5939L91.061 73.2099C95.861 69.7539 103.733 66.7779 112.661 66.7779C127.157 66.7779 135.701 74.6499 135.701 86.9379C135.701 96.9219 128.597 104.986 121.205 110.938L115.061 115.834V116.026H136.853V130.234ZM189.196 67.8339V81.9459H164.716L163.852 88.7619C165.196 88.5699 166.348 88.5699 167.5 88.5699C173.932 88.5699 180.652 90.1059 185.26 93.5619C189.868 97.0179 192.172 102.106 192.172 109.114C192.172 120.538 182.092 131.29 163.852 131.29C155.98 131.29 149.452 129.658 145.708 127.834L148.588 114.97C151.468 116.218 157.324 117.85 162.892 117.85C168.172 117.85 174.412 116.026 174.412 110.074C174.412 104.41 169.42 101.242 157.036 101.242C153.676 101.242 151.372 101.434 148.78 101.722L152.812 67.8339H189.196ZM224.356 66.7779C242.5 66.7779 248.74 83.0019 248.74 98.9379C248.74 117.274 240.964 131.29 224.164 131.29C206.308 131.29 199.684 115.45 199.684 99.1299C199.684 82.2339 206.692 66.7779 224.356 66.7779ZM224.356 79.8339C219.844 79.8339 216.964 85.4979 216.964 99.0339C216.868 112.57 219.748 118.33 224.356 118.33C228.772 118.33 231.46 112.474 231.46 99.0339C231.46 85.8819 228.868 79.8339 224.356 79.8339ZM279.387 66.7779C297.531 66.7779 303.771 83.0019 303.771 98.9379C303.771 117.274 295.995 131.29 279.195 131.29C261.339 131.29 254.715 115.45 254.715 99.1299C254.715 82.2339 261.723 66.7779 279.387 66.7779ZM279.387 79.8339C274.875 79.8339 271.995 85.4979 271.995 99.0339C271.899 112.57 274.779 118.33 279.387 118.33C283.803 118.33 286.491 112.474 286.491 99.0339C286.491 85.8819 283.899 79.8339 279.387 79.8339Z" fill="white"/>
<path d="M173.467 153.727H175.537L176.401 149.137C176.725 149.173 177.103 149.227 177.535 149.227C178.975 149.227 180.361 148.849 181.333 148.075C182.215 147.373 182.881 146.221 182.881 144.781C182.881 143.701 182.485 142.909 181.765 142.369C180.991 141.739 179.785 141.505 178.669 141.505C177.571 141.505 176.473 141.613 175.735 141.793L173.467 153.727ZM177.517 143.305C177.751 143.233 178.147 143.197 178.669 143.197C179.857 143.197 180.775 143.665 180.775 144.943C180.775 146.383 179.605 147.517 177.823 147.517C177.373 147.517 177.067 147.481 176.725 147.409L177.517 143.305ZM183.879 141.595L186.417 149.821C186.525 150.145 186.489 150.361 186.345 150.595C185.967 151.315 185.283 152.089 184.383 152.089C184.041 152.089 183.681 152.017 183.447 151.927L183.069 153.655C183.447 153.835 183.969 153.925 184.509 153.925C185.391 153.925 186.291 153.655 187.083 152.917C188.361 151.765 189.441 149.623 190.431 147.715L193.545 141.595H191.151L189.099 146.185C188.721 147.049 188.415 147.787 188.037 148.705H187.965C187.803 147.913 187.623 147.139 187.443 146.437L186.183 141.595H183.879ZM194.702 141.595L192.416 153.691C192.938 153.763 194.018 153.853 195.188 153.853C196.808 153.853 198.5 153.493 199.652 152.575C200.534 151.855 201.146 150.811 201.146 149.407C201.146 147.085 199.436 145.969 197.312 145.969C196.88 145.969 196.304 146.023 195.944 146.095L196.466 143.395H201.2L201.506 141.595H194.702ZM195.62 147.697C195.944 147.643 196.376 147.589 196.7 147.589C198.032 147.589 198.932 148.273 198.932 149.659C198.932 151.333 197.33 152.215 195.854 152.215C195.422 152.215 195.098 152.197 194.792 152.143L195.62 147.697ZM205.961 141.595L204.989 146.815C204.593 148.921 203.999 150.487 203.171 151.315C202.739 151.783 202.181 152.071 201.461 152.143L201.677 153.907C202.901 153.871 203.837 153.439 204.467 152.809C205.673 151.711 206.411 149.803 207.005 146.671L207.635 143.377H210.947L208.985 153.727H211.073L213.395 141.595H205.961ZM221.445 146.563H217.071L217.683 143.377H222.309L222.651 141.595H215.919L213.615 153.727H220.617L220.959 151.945H216.063L216.747 148.327H221.103L221.445 146.563ZM224.867 141.595L222.563 153.727H224.975L228.737 148.651C229.727 147.265 230.681 145.879 231.491 144.493L231.527 144.511C231.131 146.077 230.861 147.409 230.519 149.155L229.655 153.727H231.635L233.939 141.595H231.689L227.693 147.067C226.721 148.417 225.803 149.713 224.921 151.153H224.885C225.299 149.533 225.641 147.913 226.001 146.077L226.847 141.595H224.867ZM227.333 138.769C227.297 140.029 227.981 140.839 229.565 140.839C231.113 140.839 232.103 140.047 232.373 138.769H230.843C230.681 139.435 230.339 139.849 229.691 139.849C229.043 139.849 228.809 139.381 228.845 138.769H227.333Z" fill="white"/>
<g filter="url(#filter1_d_40_1915)">
<circle cx="335.441" cy="46.289" r="32.4728" fill="#28A879"/>
</g>
<path d="M323.968 50.2545V31.7145H323.896L319.432 33.8385L318.532 29.7345L324.724 26.8545H329.26V50.2545H323.968ZM345.521 26.4585C351.785 26.4585 354.233 32.0385 354.233 38.4465C354.233 45.6825 351.317 50.6505 345.341 50.6505C339.293 50.6505 336.629 45.2145 336.593 38.5905C336.593 31.8225 339.473 26.4585 345.521 26.4585ZM345.449 30.5985C343.433 30.5985 342.065 33.1545 342.101 38.5905C342.065 43.9545 343.361 46.5105 345.485 46.5105C347.609 46.5105 348.761 43.8465 348.761 38.5185C348.761 33.3345 347.645 30.5985 345.449 30.5985Z" fill="white"/>
<path d="M316.089 55.8842L314.553 63.9722H315.945L317.265 57.0722H320.373L319.053 63.9722H320.457L321.993 55.8842H316.089ZM322.135 63.9722H323.515L324.091 60.9122C324.307 60.9362 324.559 60.9722 324.847 60.9722C325.807 60.9722 326.731 60.7202 327.379 60.2042C327.967 59.7362 328.411 58.9682 328.411 58.0082C328.411 57.2882 328.147 56.7602 327.667 56.4002C327.151 55.9802 326.347 55.8242 325.603 55.8242C324.871 55.8242 324.139 55.8962 323.647 56.0162L322.135 63.9722ZM324.835 57.0242C324.991 56.9762 325.255 56.9522 325.603 56.9522C326.395 56.9522 327.007 57.2642 327.007 58.1162C327.007 59.0762 326.227 59.8322 325.039 59.8322C324.739 59.8322 324.535 59.8082 324.307 59.7602L324.835 57.0242ZM330.105 55.8842L328.569 63.9722H330.177L332.685 60.5882C333.345 59.6642 333.981 58.7402 334.521 57.8162L334.545 57.8282C334.281 58.8722 334.101 59.7602 333.873 60.9242L333.297 63.9722H334.617L336.153 55.8842H334.653L331.989 59.5322C331.341 60.4322 330.729 61.2962 330.141 62.2562H330.117C330.393 61.1762 330.621 60.0962 330.861 58.8722L331.425 55.8842H330.105ZM337.657 60.2882H338.209C338.953 60.2762 339.865 60.6362 339.865 61.4882C339.865 62.4362 339.049 62.9162 338.149 62.9162C337.441 62.9162 336.733 62.6282 336.397 62.4242L335.953 63.4922C336.517 63.8642 337.357 64.1042 338.161 64.1042C339.793 64.1042 341.305 63.2522 341.305 61.5482C341.305 60.5762 340.681 59.9042 339.841 59.7242V59.7002C340.801 59.4722 341.665 58.7402 341.665 57.6362C341.665 56.3162 340.585 55.7522 339.433 55.7522C338.509 55.7522 337.741 56.0402 337.237 56.3642L337.525 57.3602C337.969 57.1202 338.533 56.9042 339.133 56.9042C339.733 56.9042 340.201 57.2402 340.201 57.8642C340.225 58.8242 339.241 59.2202 338.329 59.2202H337.861L337.657 60.2882ZM346.666 55.7522C345.574 55.7522 344.554 56.1722 343.822 56.8802C342.85 57.8162 342.31 59.3282 342.31 60.7682C342.31 62.5802 343.402 64.1042 345.49 64.1042C346.666 64.1042 347.65 63.6842 348.382 62.9642C349.33 62.0282 349.846 60.5402 349.846 59.1002C349.846 57.2522 348.826 55.7522 346.666 55.7522ZM346.498 56.9282C347.986 56.9282 348.358 58.0802 348.358 59.1482C348.358 60.1682 347.962 61.5482 347.266 62.2442C346.846 62.6762 346.282 62.9282 345.694 62.9282C344.338 62.9282 343.786 61.9202 343.786 60.6962C343.786 59.6522 344.194 58.3322 344.902 57.6242C345.334 57.1922 345.874 56.9282 346.498 56.9282ZM350.307 63.9002C350.691 63.9722 351.363 64.0202 352.179 64.0202C353.403 64.0202 354.363 63.8402 355.035 63.3602C355.623 62.9522 356.079 62.3162 356.079 61.4642C356.079 60.5402 355.539 59.9162 354.783 59.6882V59.6522C355.671 59.4122 356.463 58.7162 356.463 57.6962C356.463 57.0842 356.151 56.6042 355.683 56.3162C355.191 55.9682 354.579 55.8242 353.739 55.8242C353.007 55.8242 352.335 55.8962 351.795 56.0162L350.307 63.9002ZM352.995 56.9882C353.139 56.9522 353.415 56.9282 353.739 56.9282C354.507 56.9282 355.023 57.2162 355.023 57.8762C355.023 58.7042 354.267 59.1962 353.223 59.1962H352.575L352.995 56.9882ZM352.359 60.2282H353.019C353.871 60.2282 354.603 60.5522 354.603 61.4162C354.603 62.4962 353.643 62.9162 352.599 62.9162C352.335 62.9162 352.083 62.9042 351.855 62.8802L352.359 60.2282Z" fill="white"/>
<defs>
<filter id="filter0_d_40_1915" x="0.0197268" y="33.4116" width="393.376" height="148.839" filterUnits="userSpaceOnUse" color-interpolation-filters="sRGB">
<feFlood flood-opacity="0" result="BackgroundImageFix"/>
<feColorMatrix in="SourceAlpha" type="matrix" values="0 0 0 0 0 0 0 0 0 0 0 0 0 0 0 0 0 0 127 0" result="hardAlpha"/>
<feOffset/>
<feGaussianBlur stdDeviation="6.6"/>
<feComposite in2="hardAlpha" operator="out"/>
<feColorMatrix type="matrix" values="0 0 0 0 1 0 0 0 0 0.929028 0 0 0 0 0.290278 0 0 0 1 0"/>
<feBlend mode="normal" in2="BackgroundImageFix" result="effect1_dropShadow_40_1915"/>
<feBlend mode="normal" in="SourceGraphic" in2="effect1_dropShadow_40_1915" result="shape"/>
</filter>
<filter id="filter1_d_40_1915" x="289.768" y="0.616162" width="91.3458" height="91.3457" filterUnits="userSpaceOnUse" color-interpolation-filters="sRGB">
<feFlood flood-opacity="0" result="BackgroundImageFix"/>
<feColorMatrix in="SourceAlpha" type="matrix" values="0 0 0 0 0 0 0 0 0 0 0 0 0 0 0 0 0 0 127 0" result="hardAlpha"/>
<feOffset/>
<feGaussianBlur stdDeviation="6.6"/>
<feComposite in2="hardAlpha" operator="out"/>
<feColorMatrix type="matrix" values="0 0 0 0 1 0 0 0 0 0.929028 0 0 0 0 0.290278 0 0 0 1 0"/>
<feBlend mode="normal" in2="BackgroundImageFix" result="effect1_dropShadow_40_1915"/>
<feBlend mode="normal" in="SourceGraphic" in2="effect1_dropShadow_40_1915" result="shape"/>
</filter>
</defs>
</svg>
