<svg width="364" height="310" viewBox="0 0 364 310" fill="none" xmlns="http://www.w3.org/2000/svg">
<circle cx="202.675" cy="64.1756" r="1.47511" transform="rotate(-180 202.675 64.1756)" fill="#9EFF3E" fill-opacity="0.15"/>
<circle cx="249.874" cy="52.3755" r="1.47511" transform="rotate(-180 249.874 52.3755)" fill="#9EFF3E" fill-opacity="0.6"/>
<circle cx="41.4653" cy="60.6205" r="1.47511" transform="rotate(-180 41.4653 60.6205)" fill="#9EFF3E" fill-opacity="0.3"/>
<circle cx="17.5664" cy="205.221" r="2.21237" transform="rotate(-180 17.5664 205.221)" fill="#9EFF3E" fill-opacity="0.3"/>
<circle cx="115.286" cy="232.126" r="2.21237" transform="rotate(-180 115.286 232.126)" fill="#9EFF3E" fill-opacity="0.3"/>
<circle cx="152.279" cy="57.0461" r="2.21237" transform="rotate(-180 152.279 57.0461)" fill="#9EFF3E" fill-opacity="0.15"/>
<circle cx="53.9453" cy="255.679" r="2.21237" transform="rotate(-180 53.9453 255.679)" fill="#9EFF3E" fill-opacity="0.1"/>
<circle cx="103.694" cy="213.536" r="2.21237" transform="rotate(-180 103.694 213.536)" fill="#9EFF3E" fill-opacity="0.15"/>
<circle cx="53.6753" cy="110.57" r="2.21237" transform="rotate(-180 53.6753 110.57)" fill="#9EFF3E" fill-opacity="0.1"/>
<circle cx="11.6197" cy="81.2677" r="2.21237" transform="rotate(-180 11.6197 81.2677)" fill="#9EFF3E" fill-opacity="0.3"/>
<circle cx="99.1787" cy="15.7463" r="2.21237" transform="rotate(-180 99.1787 15.7463)" fill="#9EFF3E" fill-opacity="0.7"/>
<circle cx="327.803" cy="289.604" r="0.737253" transform="rotate(-180 327.803 289.604)" fill="#9EFF3E" fill-opacity="0.15"/>
<circle cx="260.775" cy="256.125" r="0.737253" transform="rotate(-180 260.775 256.125)" fill="#9EFF3E" fill-opacity="0.3"/>
<circle cx="333.377" cy="198.407" r="0.737253" transform="rotate(-180 333.377 198.407)" fill="#9EFF3E" fill-opacity="0.1"/>
<circle cx="159.424" cy="132.698" r="0.737253" transform="rotate(-180 159.424 132.698)" fill="#9EFF3E" fill-opacity="0.3"/>
<circle cx="321.394" cy="233.04" r="0.737253" transform="rotate(-180 321.394 233.04)" fill="#9EFF3E" fill-opacity="0.6"/>
<circle cx="110.399" cy="242.565" r="0.737253" transform="rotate(-180 110.399 242.565)" fill="#9EFF3E" fill-opacity="0.1"/>
<circle cx="88.336" cy="41.3924" r="0.737253" transform="rotate(-180 88.336 41.3924)" fill="#9EFF3E" fill-opacity="0.15"/>
<circle cx="109.581" cy="166.392" r="0.737253" transform="rotate(-180 109.581 166.392)" fill="#9EFF3E" fill-opacity="0.1"/>
<circle cx="339.604" cy="90.971" r="0.737253" transform="rotate(-180 339.604 90.971)" fill="#9EFF3E" fill-opacity="0.3"/>
<circle cx="241.898" cy="309.184" r="0.737253" transform="rotate(-180 241.898 309.184)" fill="#9EFF3E" fill-opacity="0.3"/>
<circle cx="235.08" cy="115.048" r="0.737253" transform="rotate(-180 235.08 115.048)" fill="#9EFF3E" fill-opacity="0.7"/>
<circle cx="363.204" cy="144.071" r="0.737253" transform="rotate(-180 363.204 144.071)" fill="#9EFF3E" fill-opacity="0.15"/>
<circle cx="21.0035" cy="149.971" r="0.737253" transform="rotate(-180 21.0035 149.971)" fill="#9EFF3E" fill-opacity="0.1"/>
<circle cx="63.8775" cy="193.761" r="0.737253" transform="rotate(-180 63.8775 193.761)" fill="#9EFF3E" fill-opacity="0.3"/>
<circle cx="301.139" cy="17.5726" r="0.737253" transform="rotate(-180 301.139 17.5726)" fill="#9EFF3E" fill-opacity="0.1"/>
<circle cx="233.443" cy="201.656" r="0.737253" transform="rotate(-180 233.443 201.656)" fill="#9EFF3E" fill-opacity="0.15"/>
<circle cx="76.0704" cy="61.471" r="0.737253" transform="rotate(-180 76.0704 61.471)" fill="#9EFF3E" fill-opacity="0.3"/>
<circle cx="233.396" cy="100.593" r="0.737253" transform="rotate(-180 233.396 100.593)" fill="#9EFF3E" fill-opacity="0.1"/>
<circle cx="255.702" cy="109.476" r="0.737253" transform="rotate(-180 255.702 109.476)" fill="#9EFF3E" fill-opacity="0.3"/>
<circle cx="17.0704" cy="126.371" r="0.737253" transform="rotate(-180 17.0704 126.371)" fill="#9EFF3E" fill-opacity="0.15"/>
<circle cx="210.773" cy="3.27996" r="0.737253" transform="rotate(-180 210.773 3.27996)" fill="#9EFF3E" fill-opacity="0.1"/>
<circle cx="200.145" cy="54.1014" r="0.737253" transform="rotate(-180 200.145 54.1014)" fill="#9EFF3E" fill-opacity="0.1"/>
<circle cx="11.1705" cy="281.738" r="0.737253" transform="rotate(-180 11.1705 281.738)" fill="#9EFF3E" fill-opacity="0.3"/>
<circle cx="59.7115" cy="7.95257" r="0.737253" transform="rotate(-180 59.7115 7.95257)" fill="#9EFF3E" fill-opacity="0.1"/>
<path d="M360.008 45.9839L358.73 43.7712L361.285 43.7712L360.008 45.9839Z" fill="#9EFF3E" fill-opacity="0.6"/>
<circle cx="101.637" cy="112.604" r="0.737253" transform="rotate(-180 101.637 112.604)" fill="#9EFF3E" fill-opacity="0.1"/>
<path d="M2.07469 40.0841L0.797205 37.8714L3.35218 37.8714L2.07469 40.0841Z" fill="#9EFF3E" fill-opacity="0.1"/>
<path d="M3.55858 3.76807L3.24566 2.60587L2.08346 2.29295L3.24566 1.98003L3.55858 0.817838L3.8715 1.98003L5.03369 2.29295L3.8715 2.60587L3.55858 3.76807Z" fill="#9EFF3E" fill-opacity="0.1"/>
<path d="M297.075 57.7839L296.762 56.6217L295.6 56.3088L296.762 55.9959L297.075 54.8337L297.388 55.9959L298.55 56.3088L297.388 56.6217L297.075 57.7839Z" fill="#9EFF3E" fill-opacity="0.6"/>
<path d="M185.37 120.575L185.057 119.413L183.895 119.1L185.057 118.787L185.37 117.625L185.683 118.787L186.845 119.1L185.683 119.413L185.37 120.575Z" fill="#9EFF3E" fill-opacity="0.1"/>
<path d="M255.775 12.5507L255.462 11.3885L254.3 11.0755L255.462 10.7626L255.775 9.60043L256.088 10.7626L257.25 11.0755L256.088 11.3885L255.775 12.5507Z" fill="#9EFF3E" fill-opacity="0.8"/>
<path d="M235.369 226.08L235.056 224.918L233.894 224.605L235.056 224.292L235.369 223.13L235.682 224.292L236.844 224.605L235.682 224.918L235.369 226.08Z" fill="#9EFF3E" fill-opacity="0.15"/>
<path d="M109.405 81.0691L109.092 79.9069L107.93 79.594L109.092 79.2811L109.405 78.1189L109.718 79.2811L110.88 79.594L109.718 79.9069L109.405 81.0691Z" fill="#9EFF3E" fill-opacity="0.3"/>
<circle cx="359.27" cy="98.8376" r="0.737253" transform="rotate(-180 359.27 98.8376)" fill="#9EFF3E" fill-opacity="0.3"/>
</svg>
