<svg width="249" height="248" viewBox="0 0 249 248" fill="none" xmlns="http://www.w3.org/2000/svg">
<mask id="mask0_40_1993" style="mask-type:alpha" maskUnits="userSpaceOnUse" x="12" y="11" width="225" height="225">
<rect x="0.966797" y="123.533" width="174.703" height="174.703" rx="28.6454" transform="rotate(-45 0.966797 123.533)" fill="black"/>
</mask>
<g mask="url(#mask0_40_1993)">
<path d="M85.5335 0C82.951 0.730804 80.4687 1.78086 78.1435 3.12612L-5.58801 51.1271C-10.6811 54.083 -14.9086 58.3368 -17.8441 63.4595C-20.7796 68.5821 -22.3192 74.3924 -22.3076 80.3042V126.994C-22.3076 127.364 -22.3076 127.7 -22.3076 128.07C-5.24905 140.9 16.0386 146.698 37.2071 144.281C58.3755 141.865 77.8274 131.415 91.5893 115.066C105.351 98.718 112.385 77.7047 111.253 56.3189C110.121 34.9331 100.91 14.7885 85.5001 0H85.5335Z" fill="#9EFF3E"/>
<path d="M85.5335 0C82.951 0.730804 80.4687 1.78086 78.1435 3.12612L-5.58801 51.1271C-10.6811 54.083 -14.9086 58.3368 -17.8441 63.4595C-20.7796 68.5821 -22.3192 74.3924 -22.3076 80.3042V126.994C-22.3076 127.364 -22.3076 127.7 -22.3076 128.07C-5.24905 140.9 16.0386 146.698 37.2071 144.281C58.3755 141.865 77.8274 131.415 91.5893 115.066C105.351 98.718 112.385 77.7047 111.253 56.3189C110.121 34.9331 100.91 14.7885 85.5001 0H85.5335Z" fill="url(#paint0_linear_40_1993)"/>
<path d="M169.613 187.361C166.527 187.375 163.528 188.385 161.063 190.242C158.597 192.098 156.798 194.702 155.932 197.664C155.065 200.626 155.179 203.789 156.256 206.681C157.333 209.573 159.315 212.04 161.908 213.714C168.788 207.178 174.848 199.829 179.954 191.829C178.622 190.424 177.019 189.304 175.241 188.536C173.464 187.768 171.549 187.368 169.613 187.361Z" fill="white"/>
</g>
<g filter="url(#filter0_b_40_1993)">
<rect x="0.966797" y="123.533" width="174.703" height="174.703" rx="28.6454" transform="rotate(-45 0.966797 123.533)" fill="black" fill-opacity="0.1"/>
<rect x="2.23276" y="123.533" width="172.912" height="172.912" rx="27.7502" transform="rotate(-45 2.23276 123.533)" stroke="url(#paint1_linear_40_1993)" stroke-width="1.79034"/>
</g>
<rect x="31.4023" y="123.533" width="131.66" height="131.66" rx="17.9034" transform="rotate(-45 31.4023 123.533)" fill="black" fill-opacity="0.3"/>
<g filter="url(#filter1_di_40_1993)">
<path d="M101.667 105.629H148.334V136.879H101.667M148.334 143.129C149.881 143.129 151.365 142.47 152.459 141.298C153.553 140.126 154.167 138.537 154.167 136.879V105.629C154.167 103.971 153.553 102.382 152.459 101.209C151.365 100.037 149.881 99.3789 148.334 99.3789H101.667C98.4297 99.3789 95.8338 102.16 95.8338 105.629V136.879C95.8338 138.537 96.4484 140.126 97.5424 141.298C98.6363 142.47 100.12 143.129 101.667 143.129H90.0005V149.379H160V143.129H148.334Z" fill="url(#paint2_linear_40_1993)"/>
</g>
<defs>
<filter id="filter0_b_40_1993" x="-126.421" y="-127.387" width="501.841" height="501.841" filterUnits="userSpaceOnUse" color-interpolation-filters="sRGB">
<feFlood flood-opacity="0" result="BackgroundImageFix"/>
<feGaussianBlur in="BackgroundImageFix" stdDeviation="69.6263"/>
<feComposite in2="SourceAlpha" operator="in" result="effect1_backgroundBlur_40_1993"/>
<feBlend mode="normal" in="SourceGraphic" in2="effect1_backgroundBlur_40_1993" result="shape"/>
</filter>
<filter id="filter1_di_40_1993" x="68.3854" y="84.9689" width="113.23" height="93.2301" filterUnits="userSpaceOnUse" color-interpolation-filters="sRGB">
<feFlood flood-opacity="0" result="BackgroundImageFix"/>
<feColorMatrix in="SourceAlpha" type="matrix" values="0 0 0 0 0 0 0 0 0 0 0 0 0 0 0 0 0 0 127 0" result="hardAlpha"/>
<feOffset dy="7.20502"/>
<feGaussianBlur stdDeviation="10.8075"/>
<feComposite in2="hardAlpha" operator="out"/>
<feColorMatrix type="matrix" values="0 0 0 0 1 0 0 0 0 1 0 0 0 0 1 0 0 0 0.2 0"/>
<feBlend mode="normal" in2="BackgroundImageFix" result="effect1_dropShadow_40_1993"/>
<feBlend mode="normal" in="SourceGraphic" in2="effect1_dropShadow_40_1993" result="shape"/>
<feColorMatrix in="SourceAlpha" type="matrix" values="0 0 0 0 0 0 0 0 0 0 0 0 0 0 0 0 0 0 127 0" result="hardAlpha"/>
<feOffset/>
<feGaussianBlur stdDeviation="2.98875"/>
<feComposite in2="hardAlpha" operator="arithmetic" k2="-1" k3="1"/>
<feColorMatrix type="matrix" values="0 0 0 0 1 0 0 0 0 1 0 0 0 0 1 0 0 0 1 0"/>
<feBlend mode="normal" in2="shape" result="effect2_innerShadow_40_1993"/>
</filter>
<linearGradient id="paint0_linear_40_1993" x1="11.112" y1="132.75" x2="114.677" y2="42.6782" gradientUnits="userSpaceOnUse">
<stop stop-color="#9EFF3E"/>
<stop offset="1"/>
</linearGradient>
<linearGradient id="paint1_linear_40_1993" x1="165.542" y1="133.661" x2="91.483" y2="207.72" gradientUnits="userSpaceOnUse">
<stop stop-color="#9EFF3E"/>
<stop offset="1" stop-color="#9EFF3E" stop-opacity="0"/>
</linearGradient>
<linearGradient id="paint2_linear_40_1993" x1="111.539" y1="116.379" x2="129.453" y2="154.274" gradientUnits="userSpaceOnUse">
<stop stop-color="white"/>
<stop offset="1" stop-color="#9EFF3E"/>
</linearGradient>
</defs>
</svg>
